<svg version="1.1" viewBox="0.0 0.0 600.0 371.0" fill="none" stroke="none" stroke-linecap="square" stroke-miterlimit="10" width="600" height="371" xmlns:xlink="http://www.w3.org/1999/xlink" xmlns="http://www.w3.org/2000/svg"><path fill="#ffffff" d="M0 0L600.0 0L600.0 371.0L0 371.0L0 0Z" fill-rule="nonzero"/><path stroke="#333333" stroke-width="1.0" stroke-linecap="butt" d="M77.5 61.5L77.5 300.5" fill-rule="nonzero"/><path stroke="#cccccc" stroke-width="1.0" stroke-linecap="butt" d="M203.5 61.5L203.5 300.5" fill-rule="nonzero"/><path stroke="#cccccc" stroke-width="1.0" stroke-linecap="butt" d="M329.5 61.5L329.5 300.5" fill-rule="nonzero"/><path stroke="#cccccc" stroke-width="1.0" stroke-linecap="butt" d="M455.5 61.5L455.5 300.5" fill-rule="nonzero"/><path stroke="#cccccc" stroke-width="1.0" stroke-linecap="butt" d="M581.5 61.5L581.5 300.5" fill-rule="nonzero"/><path stroke="#333333" stroke-width="1.0" stroke-linecap="butt" d="M77.5 300.5L581.5 300.5" fill-rule="nonzero"/><path stroke="#cccccc" stroke-width="1.0" stroke-linecap="butt" d="M77.5 252.5L581.5 252.5" fill-rule="nonzero"/><path stroke="#cccccc" stroke-width="1.0" stroke-linecap="butt" d="M77.5 205.5L581.5 205.5" fill-rule="nonzero"/><path stroke="#cccccc" stroke-width="1.0" stroke-linecap="butt" d="M77.5 157.5L581.5 157.5" fill-rule="nonzero"/><path stroke="#cccccc" stroke-width="1.0" stroke-linecap="butt" d="M77.5 109.5L581.5 109.5" fill-rule="nonzero"/><path stroke="#cccccc" stroke-width="1.0" stroke-linecap="butt" d="M77.5 61.5L581.5 61.5" fill-rule="nonzero"/><clipPath id="id_0"><path d="M77.55 61.916668L581.45 61.916668L581.45 300.45L77.55 300.45L77.55 61.916668Z" clip-rule="nonzero"/></clipPath><path stroke="#4285f4" stroke-width="2.0" stroke-linecap="butt" clip-path="url(#id_0)" d="M77.55 252.74333L82.589 241.954L87.628 233.89442L92.667 226.9159L97.706 220.74648L102.745 215.31937L107.784 210.1284L112.823 205.40926L117.862 201.12329L122.901 196.9022L127.94 193.18967L132.979 189.42514L138.018 185.8543L143.057 182.41989L148.096 179.42964L153.135 176.26668L158.174 173.24446L163.213 170.43263L168.252 167.61508L173.291 165.30464L178.33 162.79958L183.369 160.28972L188.408 157.9707L193.447 155.6951L198.486 153.41853L203.525 151.11143L208.564 149.13782L213.603 147.03204L218.642 144.98256L223.681 143.17781L228.72 141.26288L233.759 139.36606L238.798 137.33041L243.837 135.54951L248.876 133.97902L253.915 132.2487L258.954 130.70634L263.993 129.30328L269.032 127.7304L274.071 126.508156L279.11 124.92811L284.149 123.46208L289.188 122.05712L294.227 120.8282L299.266 119.42992L304.305 118.05215L309.344 116.89526L314.383 115.63533L319.422 114.499435L324.461 113.26192L329.5 111.916115L334.539 110.93098L339.578 109.768364L344.617 108.85335L349.656 107.73272L354.695 106.67458L359.734 105.7715L364.773 104.53685L369.812 103.41479L374.851 102.59662L379.89 101.56854L384.929 100.64303L389.968 99.74662L395.007 98.73047L400.046 98.010574L405.085 97.17714L410.124 96.32606L415.163 95.45922L420.202 94.64344L425.241 94.03088L430.28 93.18266L435.319 92.653114L440.358 91.95994L445.397 91.26104L450.436 90.651344L455.475 89.873726L460.514 89.168625L465.553 88.36572L470.592 87.904396L475.631 87.320946L480.67 86.745125L485.709 86.22321L490.748 85.42985L495.787 85.03961L500.826 84.38269L505.865 84.10933L510.904 83.45814L515.943 83.27017L520.982 82.7392L526.021 82.17005L531.06 81.77266L536.099 81.21783L541.138 80.97071L546.177 80.44546L551.216 80.02946L556.255 79.61966L561.294 79.07103L566.333 78.38692L571.372 78.19895L576.411 77.95803" fill-rule="nonzero"/><path fill="#000000" fill-opacity="0.0" clip-path="url(#id_0)" d="M80.55 252.74333C80.55 254.40019 79.206856 255.74333 77.55 255.74333C75.89314 255.74333 74.55 254.40019 74.55 252.74333C74.55 251.08647 75.89314 249.74333 77.55 249.74333C79.206856 249.74333 80.55 251.08647 80.55 252.74333Z" fill-rule="nonzero"/><path fill="#000000" fill-opacity="0.0" clip-path="url(#id_0)" d="M85.589 241.954C85.589 243.61086 84.24586 244.954 82.589 244.954C80.932144 244.954 79.589 243.61086 79.589 241.954C79.589 240.29713 80.932144 238.954 82.589 238.954C84.24586 238.954 85.589 240.29713 85.589 241.954Z" fill-rule="nonzero"/><path fill="#000000" fill-opacity="0.0" clip-path="url(#id_0)" d="M90.628 233.89442C90.628 235.55128 89.28485 236.89442 87.628 236.89442C85.971146 236.89442 84.628 235.55128 84.628 233.89442C84.628 232.23758 85.971146 230.89442 87.628 230.89442C89.28485 230.89442 90.628 232.23758 90.628 233.89442Z" fill-rule="nonzero"/><path fill="#000000" fill-opacity="0.0" clip-path="url(#id_0)" d="M95.667 226.9159C95.667 228.57275 94.32385 229.9159 92.667 229.9159C91.01015 229.9159 89.667 228.57275 89.667 226.9159C89.667 225.25905 91.01015 223.9159 92.667 223.9159C94.32385 223.9159 95.667 225.25905 95.667 226.9159Z" fill-rule="nonzero"/><path fill="#000000" fill-opacity="0.0" clip-path="url(#id_0)" d="M100.706 220.74648C100.706 222.40332 99.362854 223.74648 97.706 223.74648C96.04915 223.74648 94.706 222.40332 94.706 220.74648C94.706 219.08961 96.04915 217.74648 97.706 217.74648C99.362854 217.74648 100.706 219.08961 100.706 220.74648Z" fill-rule="nonzero"/><path fill="#000000" fill-opacity="0.0" clip-path="url(#id_0)" d="M105.745 215.31937C105.745 216.97621 104.401855 218.31937 102.745 218.31937C101.08814 218.31937 99.745 216.97621 99.745 215.31937C99.745 213.6625 101.08814 212.31937 102.745 212.31937C104.401855 212.31937 105.745 213.6625 105.745 215.31937Z" fill-rule="nonzero"/><path fill="#000000" fill-opacity="0.0" clip-path="url(#id_0)" d="M110.784 210.1284C110.784 211.78525 109.44086 213.1284 107.784 213.1284C106.127144 213.1284 104.784 211.78525 104.784 210.1284C104.784 208.47154 106.127144 207.1284 107.784 207.1284C109.44086 207.1284 110.784 208.47154 110.784 210.1284Z" fill-rule="nonzero"/><path fill="#000000" fill-opacity="0.0" clip-path="url(#id_0)" d="M115.823 205.40926C115.823 207.06612 114.47985 208.40926 112.823 208.40926C111.166145 208.40926 109.823 207.06612 109.823 205.40926C109.823 203.7524 111.166145 202.40926 112.823 202.40926C114.47985 202.40926 115.823 203.7524 115.823 205.40926Z" fill-rule="nonzero"/><path fill="#000000" fill-opacity="0.0" clip-path="url(#id_0)" d="M120.862 201.12329C120.862 202.78014 119.51885 204.12329 117.862 204.12329C116.20515 204.12329 114.862 202.78014 114.862 201.12329C114.862 199.46643 116.20515 198.12329 117.862 198.12329C119.51885 198.12329 120.862 199.46643 120.862 201.12329Z" fill-rule="nonzero"/><path fill="#000000" fill-opacity="0.0" clip-path="url(#id_0)" d="M125.901 196.9022C125.901 198.55905 124.55785 199.9022 122.901 199.9022C121.24415 199.9022 119.901 198.55905 119.901 196.9022C119.901 195.24535 121.24415 193.9022 122.901 193.9022C124.55785 193.9022 125.901 195.24535 125.901 196.9022Z" fill-rule="nonzero"/><path fill="#000000" fill-opacity="0.0" clip-path="url(#id_0)" d="M130.94 193.18967C130.94 194.84653 129.59685 196.18967 127.94 196.18967C126.28314 196.18967 124.94 194.84653 124.94 193.18967C124.94 191.53282 126.28314 190.18967 127.94 190.18967C129.59685 190.18967 130.94 191.53282 130.94 193.18967Z" fill-rule="nonzero"/><path fill="#000000" fill-opacity="0.0" clip-path="url(#id_0)" d="M135.979 189.42514C135.979 191.08199 134.63585 192.42514 132.979 192.42514C131.32214 192.42514 129.979 191.08199 129.979 189.42514C129.979 187.76828 131.32214 186.42514 132.979 186.42514C134.63585 186.42514 135.979 187.76828 135.979 189.42514Z" fill-rule="nonzero"/><path fill="#000000" fill-opacity="0.0" clip-path="url(#id_0)" d="M141.018 185.8543C141.018 187.51115 139.67485 188.8543 138.018 188.8543C136.36115 188.8543 135.018 187.51115 135.018 185.8543C135.018 184.19743 136.36115 182.8543 138.018 182.8543C139.67485 182.8543 141.018 184.19743 141.018 185.8543Z" fill-rule="nonzero"/><path fill="#000000" fill-opacity="0.0" clip-path="url(#id_0)" d="M146.057 182.41989C146.057 184.07675 144.71385 185.41989 143.057 185.41989C141.40015 185.41989 140.057 184.07675 140.057 182.41989C140.057 180.76303 141.40015 179.41989 143.057 179.41989C144.71385 179.41989 146.057 180.76303 146.057 182.41989Z" fill-rule="nonzero"/><path fill="#000000" fill-opacity="0.0" clip-path="url(#id_0)" d="M151.096 179.42964C151.096 181.08649 149.75285 182.42964 148.096 182.42964C146.43915 182.42964 145.096 181.08649 145.096 179.42964C145.096 177.77278 146.43915 176.42964 148.096 176.42964C149.75285 176.42964 151.096 177.77278 151.096 179.42964Z" fill-rule="nonzero"/><path fill="#000000" fill-opacity="0.0" clip-path="url(#id_0)" d="M156.135 176.26668C156.135 177.92354 154.79185 179.26668 153.135 179.26668C151.47815 179.26668 150.135 177.92354 150.135 176.26668C150.135 174.60983 151.47815 173.26668 153.135 173.26668C154.79185 173.26668 156.135 174.60983 156.135 176.26668Z" fill-rule="nonzero"/><path fill="#000000" fill-opacity="0.0" clip-path="url(#id_0)" d="M161.174 173.24446C161.174 174.90132 159.83086 176.24446 158.174 176.24446C156.51715 176.24446 155.174 174.90132 155.174 173.24446C155.174 171.58762 156.51715 170.24446 158.174 170.24446C159.83086 170.24446 161.174 171.58762 161.174 173.24446Z" fill-rule="nonzero"/><path fill="#000000" fill-opacity="0.0" clip-path="url(#id_0)" d="M166.213 170.43263C166.213 172.0895 164.86986 173.43263 163.213 173.43263C161.55615 173.43263 160.213 172.0895 160.213 170.43263C160.213 168.77579 161.55615 167.43263 163.213 167.43263C164.86986 167.43263 166.213 168.77579 166.213 170.43263Z" fill-rule="nonzero"/><path fill="#000000" fill-opacity="0.0" clip-path="url(#id_0)" d="M171.252 167.61508C171.252 169.27194 169.90886 170.61508 168.252 170.61508C166.59514 170.61508 165.252 169.27194 165.252 167.61508C165.252 165.95822 166.59514 164.61508 168.252 164.61508C169.90886 164.61508 171.252 165.95822 171.252 167.61508Z" fill-rule="nonzero"/><path fill="#000000" fill-opacity="0.0" clip-path="url(#id_0)" d="M176.291 165.30464C176.291 166.9615 174.94786 168.30464 173.291 168.30464C171.63414 168.30464 170.291 166.9615 170.291 165.30464C170.291 163.6478 171.63414 162.30464 173.291 162.30464C174.94786 162.30464 176.291 163.6478 176.291 165.30464Z" fill-rule="nonzero"/><path fill="#000000" fill-opacity="0.0" clip-path="url(#id_0)" d="M181.33 162.79958C181.33 164.45642 179.98685 165.79958 178.33 165.79958C176.67314 165.79958 175.33 164.45642 175.33 162.79958C175.33 161.14272 176.67314 159.79958 178.33 159.79958C179.98685 159.79958 181.33 161.14272 181.33 162.79958Z" fill-rule="nonzero"/><path fill="#000000" fill-opacity="0.0" clip-path="url(#id_0)" d="M186.369 160.28972C186.369 161.94658 185.02585 163.28972 183.369 163.28972C181.71214 163.28972 180.369 161.94658 180.369 160.28972C180.369 158.63287 181.71214 157.28972 183.369 157.28972C185.02585 157.28972 186.369 158.63287 186.369 160.28972Z" fill-rule="nonzero"/><path fill="#000000" fill-opacity="0.0" clip-path="url(#id_0)" d="M191.408 157.9707C191.408 159.62755 190.06485 160.9707 188.408 160.9707C186.75114 160.9707 185.408 159.62755 185.408 157.9707C185.408 156.31384 186.75114 154.9707 188.408 154.9707C190.06485 154.9707 191.408 156.31384 191.408 157.9707Z" fill-rule="nonzero"/><path fill="#000000" fill-opacity="0.0" clip-path="url(#id_0)" d="M196.447 155.6951C196.447 157.35194 195.10385 158.6951 193.447 158.6951C191.79015 158.6951 190.447 157.35194 190.447 155.6951C190.447 154.03824 191.79015 152.6951 193.447 152.6951C195.10385 152.6951 196.447 154.03824 196.447 155.6951Z" fill-rule="nonzero"/><path fill="#000000" fill-opacity="0.0" clip-path="url(#id_0)" d="M201.486 153.41853C201.486 155.07538 200.14285 156.41853 198.486 156.41853C196.82915 156.41853 195.486 155.07538 195.486 153.41853C195.486 151.76167 196.82915 150.41853 198.486 150.41853C200.14285 150.41853 201.486 151.76167 201.486 153.41853Z" fill-rule="nonzero"/><path fill="#000000" fill-opacity="0.0" clip-path="url(#id_0)" d="M206.525 151.11143C206.525 152.7683 205.18185 154.11143 203.525 154.11143C201.86815 154.11143 200.525 152.7683 200.525 151.11143C200.525 149.45457 201.86815 148.11143 203.525 148.11143C205.18185 148.11143 206.525 149.45457 206.525 151.11143Z" fill-rule="nonzero"/><path fill="#000000" fill-opacity="0.0" clip-path="url(#id_0)" d="M211.564 149.13782C211.564 150.79466 210.22086 152.13782 208.564 152.13782C206.90715 152.13782 205.564 150.79466 205.564 149.13782C205.564 147.48096 206.90715 146.13782 208.564 146.13782C210.22086 146.13782 211.564 147.48096 211.564 149.13782Z" fill-rule="nonzero"/><path fill="#000000" fill-opacity="0.0" clip-path="url(#id_0)" d="M216.603 147.03204C216.603 148.68889 215.25986 150.03204 213.603 150.03204C211.94615 150.03204 210.603 148.68889 210.603 147.03204C210.603 145.37518 211.94615 144.03204 213.603 144.03204C215.25986 144.03204 216.603 145.37518 216.603 147.03204Z" fill-rule="nonzero"/><path fill="#000000" fill-opacity="0.0" clip-path="url(#id_0)" d="M221.642 144.98256C221.642 146.63942 220.29886 147.98256 218.642 147.98256C216.98515 147.98256 215.642 146.63942 215.642 144.98256C215.642 143.3257 216.98515 141.98256 218.642 141.98256C220.29886 141.98256 221.642 143.3257 221.642 144.98256Z" fill-rule="nonzero"/><path fill="#000000" fill-opacity="0.0" clip-path="url(#id_0)" d="M226.681 143.17781C226.681 144.83467 225.33786 146.17781 223.681 146.17781C222.02414 146.17781 220.681 144.83467 220.681 143.17781C220.681 141.52097 222.02414 140.17781 223.681 140.17781C225.33786 140.17781 226.681 141.52097 226.681 143.17781Z" fill-rule="nonzero"/><path fill="#000000" fill-opacity="0.0" clip-path="url(#id_0)" d="M231.72 141.26288C231.72 142.91972 230.37686 144.26288 228.72 144.26288C227.06314 144.26288 225.72 142.91972 225.72 141.26288C225.72 139.60602 227.06314 138.26288 228.72 138.26288C230.37686 138.26288 231.72 139.60602 231.72 141.26288Z" fill-rule="nonzero"/><path fill="#000000" fill-opacity="0.0" clip-path="url(#id_0)" d="M236.759 139.36606C236.759 141.0229 235.41585 142.36606 233.759 142.36606C232.10214 142.36606 230.759 141.0229 230.759 139.36606C230.759 137.7092 232.10214 136.36606 233.759 136.36606C235.41585 136.36606 236.759 137.7092 236.759 139.36606Z" fill-rule="nonzero"/><path fill="#000000" fill-opacity="0.0" clip-path="url(#id_0)" d="M241.798 137.33041C241.798 138.98726 240.45485 140.33041 238.798 140.33041C237.14114 140.33041 235.798 138.98726 235.798 137.33041C235.798 135.67355 237.14114 134.33041 238.798 134.33041C240.45485 134.33041 241.798 135.67355 241.798 137.33041Z" fill-rule="nonzero"/><path fill="#000000" fill-opacity="0.0" clip-path="url(#id_0)" d="M246.837 135.54951C246.837 137.20638 245.49385 138.54951 243.837 138.54951C242.18015 138.54951 240.837 137.20638 240.837 135.54951C240.837 133.89267 242.18015 132.54951 243.837 132.54951C245.49385 132.54951 246.837 133.89267 246.837 135.54951Z" fill-rule="nonzero"/><path fill="#000000" fill-opacity="0.0" clip-path="url(#id_0)" d="M251.876 133.97902C251.876 135.63588 250.53285 136.97902 248.876 136.97902C247.21915 136.97902 245.876 135.63588 245.876 133.97902C245.876 132.32216 247.21915 130.97902 248.876 130.97902C250.53285 130.97902 251.876 132.32216 251.876 133.97902Z" fill-rule="nonzero"/><path fill="#000000" fill-opacity="0.0" clip-path="url(#id_0)" d="M256.915 132.2487C256.915 133.90555 255.57185 135.2487 253.915 135.2487C252.25815 135.2487 250.915 133.90555 250.915 132.2487C250.915 130.59184 252.25815 129.2487 253.915 129.2487C255.57185 129.2487 256.915 130.59184 256.915 132.2487Z" fill-rule="nonzero"/><path fill="#000000" fill-opacity="0.0" clip-path="url(#id_0)" d="M261.954 130.70634C261.954 132.36319 260.61084 133.70634 258.954 133.70634C257.29715 133.70634 255.954 132.36319 255.954 130.70634C255.954 129.04948 257.29715 127.70634 258.954 127.70634C260.61084 127.70634 261.954 129.04948 261.954 130.70634Z" fill-rule="nonzero"/><path fill="#000000" fill-opacity="0.0" clip-path="url(#id_0)" d="M266.993 129.30328C266.993 130.96014 265.64984 132.30328 263.993 132.30328C262.33615 132.30328 260.993 130.96014 260.993 129.30328C260.993 127.64643 262.33615 126.30328 263.993 126.30328C265.64984 126.30328 266.993 127.64643 266.993 129.30328Z" fill-rule="nonzero"/><path fill="#000000" fill-opacity="0.0" clip-path="url(#id_0)" d="M272.032 127.7304C272.032 129.38725 270.68884 130.7304 269.032 130.7304C267.37515 130.7304 266.032 129.38725 266.032 127.7304C266.032 126.07355 267.37515 124.7304 269.032 124.7304C270.68884 124.7304 272.032 126.07355 272.032 127.7304Z" fill-rule="nonzero"/><path fill="#000000" fill-opacity="0.0" clip-path="url(#id_0)" d="M277.071 126.508156C277.071 128.16501 275.72784 129.50815 274.071 129.50815C272.41415 129.50815 271.071 128.16501 271.071 126.508156C271.071 124.8513 272.41415 123.508156 274.071 123.508156C275.72784 123.508156 277.071 124.8513 277.071 126.508156Z" fill-rule="nonzero"/><path fill="#000000" fill-opacity="0.0" clip-path="url(#id_0)" d="M282.11 124.92811C282.11 126.58496 280.76685 127.92811 279.11 127.92811C277.45316 127.92811 276.11 126.58496 276.11 124.92811C276.11 123.271255 277.45316 121.92811 279.11 121.92811C280.76685 121.92811 282.11 123.271255 282.11 124.92811Z" fill-rule="nonzero"/><path fill="#000000" fill-opacity="0.0" clip-path="url(#id_0)" d="M287.149 123.46208C287.149 125.118935 285.80585 126.46208 284.149 126.46208C282.49216 126.46208 281.149 125.118935 281.149 123.46208C281.149 121.80523 282.49216 120.46208 284.149 120.46208C285.80585 120.46208 287.149 121.80523 287.149 123.46208Z" fill-rule="nonzero"/><path fill="#000000" fill-opacity="0.0" clip-path="url(#id_0)" d="M292.188 122.05712C292.188 123.713974 290.84485 125.05712 289.188 125.05712C287.53116 125.05712 286.188 123.713974 286.188 122.05712C286.188 120.40027 287.53116 119.05712 289.188 119.05712C290.84485 119.05712 292.188 120.40027 292.188 122.05712Z" fill-rule="nonzero"/><path fill="#000000" fill-opacity="0.0" clip-path="url(#id_0)" d="M297.227 120.8282C297.227 122.485054 295.88385 123.8282 294.227 123.8282C292.57016 123.8282 291.227 122.485054 291.227 120.8282C291.227 119.17134 292.57016 117.8282 294.227 117.8282C295.88385 117.8282 297.227 119.17134 297.227 120.8282Z" fill-rule="nonzero"/><path fill="#000000" fill-opacity="0.0" clip-path="url(#id_0)" d="M302.266 119.42992C302.266 121.08677 300.92285 122.42992 299.266 122.42992C297.60913 122.42992 296.266 121.08677 296.266 119.42992C296.266 117.77306 297.60913 116.42992 299.266 116.42992C300.92285 116.42992 302.266 117.77306 302.266 119.42992Z" fill-rule="nonzero"/><path fill="#000000" fill-opacity="0.0" clip-path="url(#id_0)" d="M307.305 118.05215C307.305 119.709 305.96185 121.05215 304.305 121.05215C302.64813 121.05215 301.305 119.709 301.305 118.05215C301.305 116.395294 302.64813 115.05215 304.305 115.05215C305.96185 115.05215 307.305 116.395294 307.305 118.05215Z" fill-rule="nonzero"/><path fill="#000000" fill-opacity="0.0" clip-path="url(#id_0)" d="M312.344 116.89526C312.344 118.55212 311.00085 119.89526 309.344 119.89526C307.68713 119.89526 306.344 118.55212 306.344 116.89526C306.344 115.2384 307.68713 113.89526 309.344 113.89526C311.00085 113.89526 312.344 115.2384 312.344 116.89526Z" fill-rule="nonzero"/><path fill="#000000" fill-opacity="0.0" clip-path="url(#id_0)" d="M317.383 115.63533C317.383 117.29218 316.03986 118.63533 314.383 118.63533C312.72614 118.63533 311.383 117.29218 311.383 115.63533C311.383 113.97847 312.72614 112.63533 314.383 112.63533C316.03986 112.63533 317.383 113.97847 317.383 115.63533Z" fill-rule="nonzero"/><path fill="#000000" fill-opacity="0.0" clip-path="url(#id_0)" d="M322.422 114.499435C322.422 116.15629 321.07886 117.499435 319.422 117.499435C317.76514 117.499435 316.422 116.15629 316.422 114.499435C316.422 112.842575 317.76514 111.499435 319.422 111.499435C321.07886 111.499435 322.422 112.842575 322.422 114.499435Z" fill-rule="nonzero"/><path fill="#000000" fill-opacity="0.0" clip-path="url(#id_0)" d="M327.461 113.26192C327.461 114.91878 326.11786 116.26192 324.461 116.26192C322.80414 116.26192 321.461 114.91878 321.461 113.26192C321.461 111.605064 322.80414 110.26192 324.461 110.26192C326.11786 110.26192 327.461 111.605064 327.461 113.26192Z" fill-rule="nonzero"/><path fill="#000000" fill-opacity="0.0" clip-path="url(#id_0)" d="M332.5 111.916115C332.5 113.57297 331.15686 114.916115 329.5 114.916115C327.84314 114.916115 326.5 113.57297 326.5 111.916115C326.5 110.25926 327.84314 108.916115 329.5 108.916115C331.15686 108.916115 332.5 110.25926 332.5 111.916115Z" fill-rule="nonzero"/><path fill="#000000" fill-opacity="0.0" clip-path="url(#id_0)" d="M337.539 110.93098C337.539 112.58783 336.19586 113.93098 334.539 113.93098C332.88214 113.93098 331.539 112.58783 331.539 110.93098C331.539 109.27412 332.88214 107.93098 334.539 107.93098C336.19586 107.93098 337.539 109.27412 337.539 110.93098Z" fill-rule="nonzero"/><path fill="#000000" fill-opacity="0.0" clip-path="url(#id_0)" d="M342.578 109.768364C342.578 111.42522 341.23486 112.768364 339.578 112.768364C337.92114 112.768364 336.578 111.42522 336.578 109.768364C336.578 108.1115 337.92114 106.768364 339.578 106.768364C341.23486 106.768364 342.578 108.1115 342.578 109.768364Z" fill-rule="nonzero"/><path fill="#000000" fill-opacity="0.0" clip-path="url(#id_0)" d="M347.617 108.85335C347.617 110.5102 346.27386 111.85335 344.617 111.85335C342.96014 111.85335 341.617 110.5102 341.617 108.85335C341.617 107.196495 342.96014 105.85335 344.617 105.85335C346.27386 105.85335 347.617 107.196495 347.617 108.85335Z" fill-rule="nonzero"/><path fill="#000000" fill-opacity="0.0" clip-path="url(#id_0)" d="M352.656 107.73272C352.656 109.38957 351.31287 110.73272 349.656 110.73272C347.99915 110.73272 346.656 109.38957 346.656 107.73272C346.656 106.07587 347.99915 104.73272 349.656 104.73272C351.31287 104.73272 352.656 106.07587 352.656 107.73272Z" fill-rule="nonzero"/><path fill="#000000" fill-opacity="0.0" clip-path="url(#id_0)" d="M357.695 106.67458C357.695 108.331436 356.35187 109.67458 354.695 109.67458C353.03815 109.67458 351.695 108.331436 351.695 106.67458C351.695 105.01773 353.03815 103.67458 354.695 103.67458C356.35187 103.67458 357.695 105.01773 357.695 106.67458Z" fill-rule="nonzero"/><path fill="#000000" fill-opacity="0.0" clip-path="url(#id_0)" d="M362.734 105.7715C362.734 107.42835 361.39087 108.7715 359.734 108.7715C358.07715 108.7715 356.734 107.42835 356.734 105.7715C356.734 104.11464 358.07715 102.7715 359.734 102.7715C361.39087 102.7715 362.734 104.11464 362.734 105.7715Z" fill-rule="nonzero"/><path fill="#000000" fill-opacity="0.0" clip-path="url(#id_0)" d="M367.773 104.53685C367.773 106.1937 366.42984 107.53685 364.773 107.53685C363.11615 107.53685 361.773 106.1937 361.773 104.53685C361.773 102.88 363.11615 101.53685 364.773 101.53685C366.42984 101.53685 367.773 102.88 367.773 104.53685Z" fill-rule="nonzero"/><path fill="#000000" fill-opacity="0.0" clip-path="url(#id_0)" d="M372.812 103.41479C372.812 105.07164 371.46884 106.41479 369.812 106.41479C368.15515 106.41479 366.812 105.07164 366.812 103.41479C366.812 101.757935 368.15515 100.41479 369.812 100.41479C371.46884 100.41479 372.812 101.757935 372.812 103.41479Z" fill-rule="nonzero"/><path fill="#000000" fill-opacity="0.0" clip-path="url(#id_0)" d="M377.851 102.59662C377.851 104.25347 376.50784 105.59662 374.851 105.59662C373.19415 105.59662 371.851 104.25347 371.851 102.59662C371.851 100.939766 373.19415 99.59662 374.851 99.59662C376.50784 99.59662 377.851 100.939766 377.851 102.59662Z" fill-rule="nonzero"/><path fill="#000000" fill-opacity="0.0" clip-path="url(#id_0)" d="M382.89 101.56854C382.89 103.225395 381.54684 104.56854 379.89 104.56854C378.23315 104.56854 376.89 103.225395 376.89 101.56854C376.89 99.91168 378.23315 98.56854 379.89 98.56854C381.54684 98.56854 382.89 99.91168 382.89 101.56854Z" fill-rule="nonzero"/><path fill="#000000" fill-opacity="0.0" clip-path="url(#id_0)" d="M387.929 100.64303C387.929 102.29988 386.58585 103.64303 384.929 103.64303C383.27216 103.64303 381.929 102.29988 381.929 100.64303C381.929 98.986176 383.27216 97.64303 384.929 97.64303C386.58585 97.64303 387.929 98.986176 387.929 100.64303Z" fill-rule="nonzero"/><path fill="#000000" fill-opacity="0.0" clip-path="url(#id_0)" d="M392.968 99.74662C392.968 101.40347 391.62485 102.74662 389.968 102.74662C388.31116 102.74662 386.968 101.40347 386.968 99.74662C386.968 98.08977 388.31116 96.74662 389.968 96.74662C391.62485 96.74662 392.968 98.08977 392.968 99.74662Z" fill-rule="nonzero"/><path fill="#000000" fill-opacity="0.0" clip-path="url(#id_0)" d="M398.007 98.73047C398.007 100.38732 396.66385 101.73047 395.007 101.73047C393.35016 101.73047 392.007 100.38732 392.007 98.73047C392.007 97.073616 393.35016 95.73047 395.007 95.73047C396.66385 95.73047 398.007 97.073616 398.007 98.73047Z" fill-rule="nonzero"/><path fill="#000000" fill-opacity="0.0" clip-path="url(#id_0)" d="M403.046 98.010574C403.046 99.66743 401.70285 101.010574 400.046 101.010574C398.38916 101.010574 397.046 99.66743 397.046 98.010574C397.046 96.35372 398.38916 95.010574 400.046 95.010574C401.70285 95.010574 403.046 96.35372 403.046 98.010574Z" fill-rule="nonzero"/><path fill="#000000" fill-opacity="0.0" clip-path="url(#id_0)" d="M408.085 97.17714C408.085 98.83399 406.74185 100.17714 405.085 100.17714C403.42813 100.17714 402.085 98.83399 402.085 97.17714C402.085 95.52029 403.42813 94.17714 405.085 94.17714C406.74185 94.17714 408.085 95.52029 408.085 97.17714Z" fill-rule="nonzero"/><path fill="#000000" fill-opacity="0.0" clip-path="url(#id_0)" d="M413.124 96.32606C413.124 97.98291 411.78085 99.32606 410.124 99.32606C408.46713 99.32606 407.124 97.98291 407.124 96.32606C407.124 94.6692 408.46713 93.32606 410.124 93.32606C411.78085 93.32606 413.124 94.6692 413.124 96.32606Z" fill-rule="nonzero"/><path fill="#000000" fill-opacity="0.0" clip-path="url(#id_0)" d="M418.163 95.45922C418.163 97.11608 416.81985 98.45922 415.163 98.45922C413.50613 98.45922 412.163 97.11608 412.163 95.45922C412.163 93.80237 413.50613 92.45922 415.163 92.45922C416.81985 92.45922 418.163 93.80237 418.163 95.45922Z" fill-rule="nonzero"/><path fill="#000000" fill-opacity="0.0" clip-path="url(#id_0)" d="M423.202 94.64344C423.202 96.30029 421.85886 97.64344 420.202 97.64344C418.54514 97.64344 417.202 96.30029 417.202 94.64344C417.202 92.98659 418.54514 91.64344 420.202 91.64344C421.85886 91.64344 423.202 92.98659 423.202 94.64344Z" fill-rule="nonzero"/><path fill="#000000" fill-opacity="0.0" clip-path="url(#id_0)" d="M428.241 94.03088C428.241 95.687744 426.89786 97.03088 425.241 97.03088C423.58414 97.03088 422.241 95.687744 422.241 94.03088C422.241 92.37403 423.58414 91.03088 425.241 91.03088C426.89786 91.03088 428.241 92.37403 428.241 94.03088Z" fill-rule="nonzero"/><path fill="#000000" fill-opacity="0.0" clip-path="url(#id_0)" d="M433.28 93.18266C433.28 94.839516 431.93686 96.18266 430.28 96.18266C428.62314 96.18266 427.28 94.839516 427.28 93.18266C427.28 91.52581 428.62314 90.18266 430.28 90.18266C431.93686 90.18266 433.28 91.52581 433.28 93.18266Z" fill-rule="nonzero"/><path fill="#000000" fill-opacity="0.0" clip-path="url(#id_0)" d="M438.319 92.653114C438.319 94.309975 436.97586 95.653114 435.319 95.653114C433.66214 95.653114 432.319 94.309975 432.319 92.653114C432.319 90.99626 433.66214 89.653114 435.319 89.653114C436.97586 89.653114 438.319 90.99626 438.319 92.653114Z" fill-rule="nonzero"/><path fill="#000000" fill-opacity="0.0" clip-path="url(#id_0)" d="M443.358 91.95994C443.358 93.61679 442.01486 94.95994 440.358 94.95994C438.70114 94.95994 437.358 93.61679 437.358 91.95994C437.358 90.303085 438.70114 88.95994 440.358 88.95994C442.01486 88.95994 443.358 90.303085 443.358 91.95994Z" fill-rule="nonzero"/><path fill="#000000" fill-opacity="0.0" clip-path="url(#id_0)" d="M448.397 91.26104C448.397 92.91789 447.05386 94.26104 445.397 94.26104C443.74014 94.26104 442.397 92.91789 442.397 91.26104C442.397 89.60418 443.74014 88.26104 445.397 88.26104C447.05386 88.26104 448.397 89.60418 448.397 91.26104Z" fill-rule="nonzero"/><path fill="#000000" fill-opacity="0.0" clip-path="url(#id_0)" d="M453.436 90.651344C453.436 92.3082 452.09286 93.651344 450.436 93.651344C448.77914 93.651344 447.436 92.3082 447.436 90.651344C447.436 88.99449 448.77914 87.651344 450.436 87.651344C452.09286 87.651344 453.436 88.99449 453.436 90.651344Z" fill-rule="nonzero"/><path fill="#000000" fill-opacity="0.0" clip-path="url(#id_0)" d="M458.475 89.873726C458.475 91.53058 457.13187 92.873726 455.475 92.873726C453.81815 92.873726 452.475 91.53058 452.475 89.873726C452.475 88.21687 453.81815 86.873726 455.475 86.873726C457.13187 86.873726 458.475 88.21687 458.475 89.873726Z" fill-rule="nonzero"/><path fill="#000000" fill-opacity="0.0" clip-path="url(#id_0)" d="M463.514 89.168625C463.514 90.82548 462.17087 92.168625 460.514 92.168625C458.85715 92.168625 457.514 90.82548 457.514 89.168625C457.514 87.51177 458.85715 86.168625 460.514 86.168625C462.17087 86.168625 463.514 87.51177 463.514 89.168625Z" fill-rule="nonzero"/><path fill="#000000" fill-opacity="0.0" clip-path="url(#id_0)" d="M468.553 88.36572C468.553 90.022575 467.20987 91.36572 465.553 91.36572C463.89615 91.36572 462.553 90.022575 462.553 88.36572C462.553 86.70886 463.89615 85.36572 465.553 85.36572C467.20987 85.36572 468.553 86.70886 468.553 88.36572Z" fill-rule="nonzero"/><path fill="#000000" fill-opacity="0.0" clip-path="url(#id_0)" d="M473.592 87.904396C473.592 89.56125 472.24884 90.904396 470.592 90.904396C468.93515 90.904396 467.592 89.56125 467.592 87.904396C467.592 86.24754 468.93515 84.904396 470.592 84.904396C472.24884 84.904396 473.592 86.24754 473.592 87.904396Z" fill-rule="nonzero"/><path fill="#000000" fill-opacity="0.0" clip-path="url(#id_0)" d="M478.631 87.320946C478.631 88.9778 477.28784 90.320946 475.631 90.320946C473.97415 90.320946 472.631 88.9778 472.631 87.320946C472.631 85.66409 473.97415 84.320946 475.631 84.320946C477.28784 84.320946 478.631 85.66409 478.631 87.320946Z" fill-rule="nonzero"/><path fill="#000000" fill-opacity="0.0" clip-path="url(#id_0)" d="M483.67 86.745125C483.67 88.40198 482.32684 89.745125 480.67 89.745125C479.01315 89.745125 477.67 88.40198 477.67 86.745125C477.67 85.08827 479.01315 83.745125 480.67 83.745125C482.32684 83.745125 483.67 85.08827 483.67 86.745125Z" fill-rule="nonzero"/><path fill="#000000" fill-opacity="0.0" clip-path="url(#id_0)" d="M488.709 86.22321C488.709 87.880066 487.36584 89.22321 485.709 89.22321C484.05215 89.22321 482.709 87.880066 482.709 86.22321C482.709 84.56636 484.05215 83.22321 485.709 83.22321C487.36584 83.22321 488.709 84.56636 488.709 86.22321Z" fill-rule="nonzero"/><path fill="#000000" fill-opacity="0.0" clip-path="url(#id_0)" d="M493.748 85.42985C493.748 87.08671 492.40485 88.42985 490.748 88.42985C489.09116 88.42985 487.748 87.08671 487.748 85.42985C487.748 83.772995 489.09116 82.42985 490.748 82.42985C492.40485 82.42985 493.748 83.772995 493.748 85.42985Z" fill-rule="nonzero"/><path fill="#000000" fill-opacity="0.0" clip-path="url(#id_0)" d="M498.787 85.03961C498.787 86.696465 497.44385 88.03961 495.787 88.03961C494.13016 88.03961 492.787 86.696465 492.787 85.03961C492.787 83.38276 494.13016 82.03961 495.787 82.03961C497.44385 82.03961 498.787 83.38276 498.787 85.03961Z" fill-rule="nonzero"/><path fill="#000000" fill-opacity="0.0" clip-path="url(#id_0)" d="M503.826 84.38269C503.826 86.03954 502.48285 87.38269 500.826 87.38269C499.16916 87.38269 497.826 86.03954 497.826 84.38269C497.826 82.72584 499.16916 81.38269 500.826 81.38269C502.48285 81.38269 503.826 82.72584 503.826 84.38269Z" fill-rule="nonzero"/><path fill="#000000" fill-opacity="0.0" clip-path="url(#id_0)" d="M508.865 84.10933C508.865 85.76618 507.52185 87.10933 505.865 87.10933C504.20816 87.10933 502.865 85.76618 502.865 84.10933C502.865 82.45248 504.20816 81.10933 505.865 81.10933C507.52185 81.10933 508.865 82.45248 508.865 84.10933Z" fill-rule="nonzero"/><path fill="#000000" fill-opacity="0.0" clip-path="url(#id_0)" d="M513.904 83.45814C513.904 85.11499 512.56085 86.45814 510.904 86.45814C509.24713 86.45814 507.904 85.11499 507.904 83.45814C507.904 81.80128 509.24713 80.45814 510.904 80.45814C512.56085 80.45814 513.904 81.80128 513.904 83.45814Z" fill-rule="nonzero"/><path fill="#000000" fill-opacity="0.0" clip-path="url(#id_0)" d="M518.943 83.27017C518.943 84.927025 517.59985 86.27017 515.943 86.27017C514.28613 86.27017 512.943 84.927025 512.943 83.27017C512.943 81.61332 514.28613 80.27017 515.943 80.27017C517.59985 80.27017 518.943 81.61332 518.943 83.27017Z" fill-rule="nonzero"/><path fill="#000000" fill-opacity="0.0" clip-path="url(#id_0)" d="M523.982 82.7392C523.982 84.39605 522.63885 85.7392 520.982 85.7392C519.32513 85.7392 517.982 84.39605 517.982 82.7392C517.982 81.082344 519.32513 79.7392 520.982 79.7392C522.63885 79.7392 523.982 81.082344 523.982 82.7392Z" fill-rule="nonzero"/><path fill="#000000" fill-opacity="0.0" clip-path="url(#id_0)" d="M529.021 82.17005C529.021 83.82691 527.67786 85.17005 526.021 85.17005C524.36414 85.17005 523.021 83.82691 523.021 82.17005C523.021 80.5132 524.36414 79.17005 526.021 79.17005C527.67786 79.17005 529.021 80.5132 529.021 82.17005Z" fill-rule="nonzero"/><path fill="#000000" fill-opacity="0.0" clip-path="url(#id_0)" d="M534.06 81.77266C534.06 83.42951 532.71686 84.77266 531.06 84.77266C529.40314 84.77266 528.06 83.42951 528.06 81.77266C528.06 80.11581 529.40314 78.77266 531.06 78.77266C532.71686 78.77266 534.06 80.11581 534.06 81.77266Z" fill-rule="nonzero"/><path fill="#000000" fill-opacity="0.0" clip-path="url(#id_0)" d="M539.099 81.21783C539.099 82.87469 537.75586 84.21783 536.099 84.21783C534.44214 84.21783 533.099 82.87469 533.099 81.21783C533.099 79.560974 534.44214 78.21783 536.099 78.21783C537.75586 78.21783 539.099 79.560974 539.099 81.21783Z" fill-rule="nonzero"/><path fill="#000000" fill-opacity="0.0" clip-path="url(#id_0)" d="M544.138 80.97071C544.138 82.62756 542.79486 83.97071 541.138 83.97071C539.48114 83.97071 538.138 82.62756 538.138 80.97071C538.138 79.31386 539.48114 77.97071 541.138 77.97071C542.79486 77.97071 544.138 79.31386 544.138 80.97071Z" fill-rule="nonzero"/><path fill="#000000" fill-opacity="0.0" clip-path="url(#id_0)" d="M549.177 80.44546C549.177 82.10231 547.83386 83.44546 546.177 83.44546C544.52014 83.44546 543.177 82.10231 543.177 80.44546C543.177 78.788605 544.52014 77.44546 546.177 77.44546C547.83386 77.44546 549.177 78.788605 549.177 80.44546Z" fill-rule="nonzero"/><path fill="#000000" fill-opacity="0.0" clip-path="url(#id_0)" d="M554.216 80.02946C554.216 81.68631 552.87286 83.02946 551.216 83.02946C549.55914 83.02946 548.216 81.68631 548.216 80.02946C548.216 78.372604 549.55914 77.02946 551.216 77.02946C552.87286 77.02946 554.216 78.372604 554.216 80.02946Z" fill-rule="nonzero"/><path fill="#000000" fill-opacity="0.0" clip-path="url(#id_0)" d="M559.255 79.61966C559.255 81.27651 557.91187 82.61966 556.255 82.61966C554.59814 82.61966 553.255 81.27651 553.255 79.61966C553.255 77.9628 554.59814 76.61966 556.255 76.61966C557.91187 76.61966 559.255 77.9628 559.255 79.61966Z" fill-rule="nonzero"/><path fill="#000000" fill-opacity="0.0" clip-path="url(#id_0)" d="M564.294 79.07103C564.294 80.72788 562.95087 82.07103 561.294 82.07103C559.63715 82.07103 558.294 80.72788 558.294 79.07103C558.294 77.41418 559.63715 76.07103 561.294 76.07103C562.95087 76.07103 564.294 77.41418 564.294 79.07103Z" fill-rule="nonzero"/><path fill="#000000" fill-opacity="0.0" clip-path="url(#id_0)" d="M569.333 78.38692C569.333 80.04377 567.98987 81.38692 566.333 81.38692C564.67615 81.38692 563.333 80.04377 563.333 78.38692C563.333 76.730064 564.67615 75.38692 566.333 75.38692C567.98987 75.38692 569.333 76.730064 569.333 78.38692Z" fill-rule="nonzero"/><path fill="#000000" fill-opacity="0.0" clip-path="url(#id_0)" d="M574.372 78.19895C574.372 79.855804 573.0289 81.19895 571.372 81.19895C569.71515 81.19895 568.372 79.855804 568.372 78.19895C568.372 76.5421 569.71515 75.19895 571.372 75.19895C573.0289 75.19895 574.372 76.5421 574.372 78.19895Z" fill-rule="nonzero"/><path fill="#000000" fill-opacity="0.0" clip-path="url(#id_0)" d="M579.411 77.95803C579.411 79.61489 578.0679 80.95803 576.411 80.95803C574.75415 80.95803 573.411 79.61489 573.411 77.95803C573.411 76.30118 574.75415 74.95803 576.411 74.95803C578.0679 74.95803 579.411 76.30118 579.411 77.95803Z" fill-rule="nonzero"/><path fill="#000000" d="M288.60938 349.45L288.60938 341.8719L285.78125 341.8719L285.78125 340.85626L292.59375 340.85626L292.59375 341.8719L289.75 341.8719L289.75 349.45L288.60938 349.45ZM293.29688 342.075L293.29688 340.85626L294.35938 340.85626L294.35938 342.075L293.29688 342.075ZM293.29688 349.45L293.29688 343.23126L294.35938 343.23126L294.35938 349.45L293.29688 349.45ZM296.29688 349.45L296.29688 343.23126L297.23438 343.23126L297.23438 344.10626Q297.53125 343.6375 298.01562 343.3719Q298.5 343.09064 299.125 343.09064Q299.8125 343.09064 300.25 343.3719Q300.70312 343.65314 300.875 344.16876Q301.625 343.09064 302.79688 343.09064Q303.73438 343.09064 304.21875 343.60626Q304.71875 344.10626 304.71875 345.1844L304.71875 349.45L303.67188 349.45L303.67188 345.52814Q303.67188 344.90314 303.5625 344.6219Q303.46875 344.34064 303.20312 344.16876Q302.9375 343.9969 302.5625 343.9969Q301.90625 343.9969 301.46875 344.4344Q301.04688 344.8719 301.04688 345.84064L301.04688 349.45L299.98438 349.45L299.98438 345.40314Q299.98438 344.7 299.71875 344.35626Q299.46875 343.9969 298.89062 343.9969Q298.4375 343.9969 298.0625 344.23126Q297.6875 344.46564 297.51562 344.91876Q297.34375 345.3719 297.34375 346.21564L297.34375 349.45L296.29688 349.45ZM311.54688 347.45L312.64062 347.575Q312.39062 348.52814 311.6875 349.0594Q310.98438 349.59064 309.90625 349.59064Q308.54688 349.59064 307.73438 348.7469Q306.9375 347.90314 306.9375 346.3875Q306.9375 344.825 307.75 343.96564Q308.5625 343.09064 309.84375 343.09064Q311.09375 343.09064 311.875 343.9344Q312.67188 344.77814 312.67188 346.325Q312.67188 346.41876 312.67188 346.60626L308.03125 346.60626Q308.09375 347.6375 308.60938 348.1844Q309.125 348.71564 309.90625 348.71564Q310.48438 348.71564 310.89062 348.41876Q311.3125 348.10626 311.54688 347.45ZM308.09375 345.7469L311.5625 345.7469Q311.5 344.95 311.17188 344.5594Q310.65625 343.95 309.85938 343.95Q309.125 343.95 308.625 344.4344Q308.14062 344.91876 308.09375 345.7469ZM316.875 347.59064L317.90625 347.4344Q318.0 348.0594 318.39062 348.3875Q318.79688 348.71564 319.53125 348.71564Q320.25 348.71564 320.59375 348.4344Q320.95312 348.1375 320.95312 347.73126Q320.95312 347.3719 320.64062 347.16876Q320.42188 347.02814 319.5625 346.8094Q318.40625 346.5125 317.95312 346.3094Q317.51562 346.09064 317.28125 345.71564Q317.04688 345.34064 317.04688 344.8719Q317.04688 344.46564 317.23438 344.10626Q317.42188 343.7469 317.75 343.5125Q318.0 343.34064 318.42188 343.21564Q318.84375 343.09064 319.34375 343.09064Q320.0625 343.09064 320.60938 343.3094Q321.17188 343.5125 321.4375 343.8719Q321.70312 344.23126 321.79688 344.825L320.76562 344.96564Q320.70312 344.4969 320.35938 344.23126Q320.03125 343.95 319.40625 343.95Q318.6875 343.95 318.375 344.2Q318.0625 344.4344 318.0625 344.7625Q318.0625 344.96564 318.1875 345.1219Q318.32812 345.29376 318.59375 345.40314Q318.75 345.46564 319.53125 345.66876Q320.65625 345.98126 321.09375 346.16876Q321.53125 346.35626 321.78125 346.71564Q322.03125 347.075 322.03125 347.6219Q322.03125 348.15314 321.71875 348.6219Q321.42188 349.075 320.84375 349.34064Q320.26562 349.59064 319.53125 349.59064Q318.3125 349.59064 317.67188 349.09064Q317.04688 348.575 316.875 347.59064ZM324.29688 342.075L324.29688 340.85626L325.35938 340.85626L325.35938 342.075L324.29688 342.075ZM324.29688 349.45L324.29688 343.23126L325.35938 343.23126L325.35938 349.45L324.29688 349.45ZM327.29688 349.45L327.29688 343.23126L328.23438 343.23126L328.23438 344.10626Q328.92188 343.09064 330.21875 343.09064Q330.78125 343.09064 331.25 343.29376Q331.73438 343.4969 331.96875 343.825Q332.20312 344.15314 332.29688 344.59064Q332.34375 344.8875 332.34375 345.6219L332.34375 349.45L331.29688 349.45L331.29688 345.66876Q331.29688 345.0125 331.17188 344.7Q331.04688 344.3875 330.73438 344.2Q330.42188 343.9969 330.0 343.9969Q329.32812 343.9969 328.82812 344.4344Q328.34375 344.85626 328.34375 346.04376L328.34375 349.45L327.29688 349.45ZM338.35938 347.16876L339.39062 347.3094Q339.21875 348.3719 338.51562 348.98126Q337.8125 349.59064 336.79688 349.59064Q335.51562 349.59064 334.73438 348.7625Q333.96875 347.91876 333.96875 346.35626Q333.96875 345.35626 334.29688 344.60626Q334.64062 343.84064 335.3125 343.46564Q336.0 343.09064 336.8125 343.09064Q337.8125 343.09064 338.45312 343.60626Q339.10938 344.10626 339.29688 345.0594L338.26562 345.21564Q338.125 344.59064 337.75 344.27814Q337.375 343.95 336.84375 343.95Q336.04688 343.95 335.54688 344.52814Q335.04688 345.09064 335.04688 346.325Q335.04688 347.59064 335.53125 348.15314Q336.01562 348.71564 336.78125 348.71564Q337.40625 348.71564 337.8125 348.34064Q338.23438 347.96564 338.35938 347.16876ZM344.54688 347.45L345.64062 347.575Q345.39062 348.52814 344.6875 349.0594Q343.98438 349.59064 342.90625 349.59064Q341.54688 349.59064 340.73438 348.7469Q339.9375 347.90314 339.9375 346.3875Q339.9375 344.825 340.75 343.96564Q341.5625 343.09064 342.84375 343.09064Q344.09375 343.09064 344.875 343.9344Q345.67188 344.77814 345.67188 346.325Q345.67188 346.41876 345.67188 346.60626L341.03125 346.60626Q341.09375 347.6375 341.60938 348.1844Q342.125 348.71564 342.90625 348.71564Q343.48438 348.71564 343.89062 348.41876Q344.3125 348.10626 344.54688 347.45ZM341.09375 345.7469L344.5625 345.7469Q344.5 344.95 344.17188 344.5594Q343.65625 343.95 342.85938 343.95Q342.125 343.95 341.625 344.4344Q341.14062 344.91876 341.09375 345.7469ZM349.875 347.59064L350.90625 347.4344Q351.0 348.0594 351.39062 348.3875Q351.79688 348.71564 352.53125 348.71564Q353.25 348.71564 353.59375 348.4344Q353.95312 348.1375 353.95312 347.73126Q353.95312 347.3719 353.64062 347.16876Q353.42188 347.02814 352.5625 346.8094Q351.40625 346.5125 350.95312 346.3094Q350.51562 346.09064 350.28125 345.71564Q350.04688 345.34064 350.04688 344.8719Q350.04688 344.46564 350.23438 344.10626Q350.42188 343.7469 350.75 343.5125Q351.0 343.34064 351.42188 343.21564Q351.84375 343.09064 352.34375 343.09064Q353.0625 343.09064 353.60938 343.3094Q354.17188 343.5125 354.4375 343.8719Q354.70312 344.23126 354.79688 344.825L353.76562 344.96564Q353.70312 344.4969 353.35938 344.23126Q353.03125 343.95 352.40625 343.95Q351.6875 343.95 351.375 344.2Q351.0625 344.4344 351.0625 344.7625Q351.0625 344.96564 351.1875 345.1219Q351.32812 345.29376 351.59375 345.40314Q351.75 345.46564 352.53125 345.66876Q353.65625 345.98126 354.09375 346.16876Q354.53125 346.35626 354.78125 346.71564Q355.03125 347.075 355.03125 347.6219Q355.03125 348.15314 354.71875 348.6219Q354.42188 349.075 353.84375 349.34064Q353.26562 349.59064 352.53125 349.59064Q351.3125 349.59064 350.67188 349.09064Q350.04688 348.575 349.875 347.59064ZM359.59375 348.5125L359.75 349.4344Q359.29688 349.52814 358.95312 349.52814Q358.375 349.52814 358.0625 349.35626Q357.75 349.16876 357.60938 348.8719Q357.48438 348.575 357.48438 347.6219L357.48438 344.04376L356.71875 344.04376L356.71875 343.23126L357.48438 343.23126L357.48438 341.6844L358.53125 341.0594L358.53125 343.23126L359.59375 343.23126L359.59375 344.04376L358.53125 344.04376L358.53125 347.6844Q358.53125 348.1375 358.57812 348.2625Q358.64062 348.3875 358.76562 348.46564Q358.89062 348.54376 359.125 348.54376Q359.3125 348.54376 359.59375 348.5125ZM364.35938 348.6844Q363.76562 349.1844 363.21875 349.3875Q362.6875 349.59064 362.0625 349.59064Q361.03125 349.59064 360.48438 349.09064Q359.9375 348.59064 359.9375 347.8094Q359.9375 347.35626 360.14062 346.98126Q360.34375 346.59064 360.6875 346.3719Q361.03125 346.1375 361.45312 346.02814Q361.75 345.9344 362.39062 345.85626Q363.65625 345.71564 364.26562 345.4969Q364.26562 345.27814 364.26562 345.23126Q364.26562 344.575 363.96875 344.3094Q363.5625 343.96564 362.76562 343.96564Q362.03125 343.96564 361.67188 344.23126Q361.3125 344.48126 361.14062 345.1375L360.10938 344.9969Q360.25 344.34064 360.57812 343.9344Q360.90625 343.52814 361.51562 343.3094Q362.125 343.09064 362.92188 343.09064Q363.71875 343.09064 364.21875 343.27814Q364.71875 343.46564 364.95312 343.7469Q365.1875 344.02814 365.28125 344.46564Q365.32812 344.73126 365.32812 345.4344L365.32812 346.84064Q365.32812 348.3094 365.39062 348.7Q365.46875 349.09064 365.67188 349.45L364.5625 349.45Q364.40625 349.1219 364.35938 348.6844ZM364.26562 346.325Q363.6875 346.5594 362.54688 346.73126Q361.89062 346.825 361.625 346.95Q361.35938 347.0594 361.20312 347.27814Q361.0625 347.4969 361.0625 347.77814Q361.0625 348.2 361.375 348.48126Q361.70312 348.7625 362.3125 348.7625Q362.92188 348.7625 363.39062 348.4969Q363.875 348.23126 364.09375 347.7625Q364.26562 347.40314 364.26562 346.71564L364.26562 346.325ZM367.28125 349.45L367.28125 343.23126L368.23438 343.23126L368.23438 344.16876Q368.59375 343.5125 368.89062 343.3094Q369.20312 343.09064 369.57812 343.09064Q370.10938 343.09064 370.65625 343.41876L370.29688 344.40314Q369.90625 344.16876 369.53125 344.16876Q369.17188 344.16876 368.89062 344.3875Q368.625 344.59064 368.51562 344.96564Q368.32812 345.52814 368.32812 346.1844L368.32812 349.45L367.28125 349.45ZM373.59375 348.5125L373.75 349.4344Q373.29688 349.52814 372.95312 349.52814Q372.375 349.52814 372.0625 349.35626Q371.75 349.16876 371.60938 348.8719Q371.48438 348.575 371.48438 347.6219L371.48438 344.04376L370.71875 344.04376L370.71875 343.23126L371.48438 343.23126L371.48438 341.6844L372.53125 341.0594L372.53125 343.23126L373.59375 343.23126L373.59375 344.04376L372.53125 344.04376L372.53125 347.6844Q372.53125 348.1375 372.57812 348.2625Q372.64062 348.3875 372.76562 348.46564Q372.89062 348.54376 373.125 348.54376Q373.3125 348.54376 373.59375 348.5125Z" fill-rule="nonzero"/><path fill="#000000" d="M29.550013 223.29271L20.956263 223.29271L20.956263 221.57396L27.034388 219.54271Q27.893763 219.26146 28.315638 219.13646Q27.846888 218.99583 26.940638 218.68333L20.956263 216.62083L20.956263 215.08958L29.550013 215.08958L29.550013 216.18333L22.362513 216.18333L29.550013 218.68333L29.550013 219.71458L22.237513 222.19896L29.550013 222.19896L29.550013 223.29271ZM27.550013 210.13646L27.675013 209.04271Q28.628138 209.29271 29.159388 209.99583Q29.690638 210.69896 29.690638 211.77708Q29.690638 213.13646 28.846888 213.94896Q28.003138 214.74583 26.487513 214.74583Q24.925013 214.74583 24.065638 213.93333Q23.190638 213.12083 23.190638 211.83958Q23.190638 210.58958 24.034388 209.80833Q24.878138 209.01146 26.425013 209.01146Q26.518763 209.01146 26.706263 209.01146L26.706263 213.65208Q27.737513 213.58958 28.284388 213.07396Q28.815638 212.55833 28.815638 211.77708Q28.815638 211.19896 28.518763 210.79271Q28.206263 210.37083 27.550013 210.13646ZM25.846888 213.58958L25.846888 210.12083Q25.050013 210.18333 24.659388 210.51146Q24.050013 211.02708 24.050013 211.82396Q24.050013 212.55833 24.534388 213.05833Q25.018763 213.54271 25.846888 213.58958ZM28.784388 203.32396Q29.284388 203.91771 29.487513 204.46458Q29.690638 204.99583 29.690638 205.62083Q29.690638 206.65208 29.190638 207.19896Q28.690638 207.74583 27.909388 207.74583Q27.456263 207.74583 27.081263 207.54271Q26.690638 207.33958 26.471888 206.99583Q26.237513 206.65208 26.128138 206.23021Q26.034388 205.93333 25.956263 205.29271Q25.815638 204.02708 25.596888 203.41771Q25.378138 203.41771 25.331263 203.41771Q24.675013 203.41771 24.409388 203.71458Q24.065638 204.12083 24.065638 204.91771Q24.065638 205.65208 24.331263 206.01146Q24.581263 206.37083 25.237513 206.54271L25.096888 207.57396Q24.440638 207.43333 24.034388 207.10521Q23.628138 206.77708 23.409388 206.16771Q23.190638 205.55833 23.190638 204.76146Q23.190638 203.96458 23.378138 203.46458Q23.565638 202.96458 23.846888 202.73021Q24.128138 202.49583 24.565638 202.40208Q24.831263 202.35521 25.534388 202.35521L26.940638 202.35521Q28.409388 202.35521 28.800013 202.29271Q29.190638 202.21458 29.550013 202.01146L29.550013 203.12083Q29.221888 203.27708 28.784388 203.32396ZM26.425013 203.41771Q26.659388 203.99583 26.831263 205.13646Q26.925013 205.79271 27.050013 206.05833Q27.159388 206.32396 27.378138 206.48021Q27.596888 206.62083 27.878138 206.62083Q28.300013 206.62083 28.581263 206.30833Q28.862513 205.98021 28.862513 205.37083Q28.862513 204.76146 28.596888 204.29271Q28.331263 203.80833 27.862513 203.58958Q27.503138 203.41771 26.815638 203.41771L26.425013 203.41771ZM29.550013 200.38646L23.331263 200.38646L23.331263 199.44896L24.206263 199.44896Q23.190638 198.76146 23.190638 197.46458Q23.190638 196.90208 23.393763 196.43333Q23.596888 195.94896 23.925013 195.71458Q24.253138 195.48021 24.690638 195.38646Q24.987513 195.33958 25.721888 195.33958L29.550013 195.33958L29.550013 196.38646L25.768763 196.38646Q25.112513 196.38646 24.800013 196.51146Q24.487513 196.63646 24.300013 196.94896Q24.096888 197.26146 24.096888 197.68333Q24.096888 198.35521 24.534388 198.85521Q24.956263 199.33958 26.143763 199.33958L29.550013 199.33958L29.550013 200.38646ZM27.550013 186.13646L27.675013 185.04271Q28.628138 185.29271 29.159388 185.99583Q29.690638 186.69896 29.690638 187.77708Q29.690638 189.13646 28.846888 189.94896Q28.003138 190.74583 26.487513 190.74583Q24.925013 190.74583 24.065638 189.93333Q23.190638 189.12083 23.190638 187.83958Q23.190638 186.58958 24.034388 185.80833Q24.878138 185.01146 26.425013 185.01146Q26.518763 185.01146 26.706263 185.01146L26.706263 189.65208Q27.737513 189.58958 28.284388 189.07396Q28.815638 188.55833 28.815638 187.77708Q28.815638 187.19896 28.518763 186.79271Q28.206263 186.37083 27.550013 186.13646ZM25.846888 189.58958L25.846888 186.12083Q25.050013 186.18333 24.659388 186.51146Q24.050013 187.02708 24.050013 187.82396Q24.050013 188.55833 24.534388 189.05833Q25.018763 189.54271 25.846888 189.58958ZM29.550013 183.38646L23.331263 183.38646L23.331263 182.44896L24.206263 182.44896Q23.190638 181.76146 23.190638 180.46458Q23.190638 179.90208 23.393763 179.43333Q23.596888 178.94896 23.925013 178.71458Q24.253138 178.48021 24.690638 178.38646Q24.987513 178.33958 25.721888 178.33958L29.550013 178.33958L29.550013 179.38646L25.768763 179.38646Q25.112513 179.38646 24.800013 179.51146Q24.487513 179.63646 24.300013 179.94896Q24.096888 180.26146 24.096888 180.68333Q24.096888 181.35521 24.534388 181.85521Q24.956263 182.33958 26.143763 182.33958L29.550013 182.33958L29.550013 183.38646ZM28.612513 174.08958L29.534388 173.93333Q29.628138 174.38646 29.628138 174.73021Q29.628138 175.30833 29.456263 175.62083Q29.268763 175.93333 28.971888 176.07396Q28.675013 176.19896 27.721888 176.19896L24.143763 176.19896L24.143763 176.96458L23.331263 176.96458L23.331263 176.19896L21.784388 176.19896L21.159388 175.15208L23.331263 175.15208L23.331263 174.08958L24.143763 174.08958L24.143763 175.15208L27.784388 175.15208Q28.237513 175.15208 28.362513 175.10521Q28.487513 175.04271 28.565638 174.91771Q28.643763 174.79271 28.643763 174.55833Q28.643763 174.37083 28.612513 174.08958ZM29.550013 173.40208L23.331263 173.40208L23.331263 172.44896L24.268763 172.44896Q23.612513 172.08958 23.409388 171.79271Q23.190638 171.48021 23.190638 171.10521Q23.190638 170.57396 23.518763 170.02708L24.503138 170.38646Q24.268763 170.77708 24.268763 171.15208Q24.268763 171.51146 24.487513 171.79271Q24.690638 172.05833 25.065638 172.16771Q25.628138 172.35521 26.284388 172.35521L29.550013 172.35521L29.550013 173.40208ZM26.440638 169.77708Q24.706263 169.77708 23.878138 168.82396Q23.190638 168.02708 23.190638 166.87083Q23.190638 165.58958 24.034388 164.77708Q24.862513 163.94896 26.346888 163.94896Q27.550013 163.94896 28.237513 164.30833Q28.925013 164.66771 29.315638 165.37083Q29.690638 166.05833 29.690638 166.87083Q29.690638 168.16771 28.862513 168.98021Q28.018763 169.77708 26.440638 169.77708ZM26.440638 168.69896Q27.628138 168.69896 28.221888 168.18333Q28.815638 167.65208 28.815638 166.87083Q28.815638 166.07396 28.221888 165.55833Q27.628138 165.04271 26.409388 165.04271Q25.253138 165.04271 24.659388 165.57396Q24.065638 166.08958 24.065638 166.87083Q24.065638 167.65208 24.659388 168.18333Q25.237513 168.69896 26.440638 168.69896ZM31.940638 162.38646L23.331263 162.38646L23.331263 161.43333L24.128138 161.43333Q23.659388 161.08958 23.425013 160.66771Q23.190638 160.23021 23.190638 159.62083Q23.190638 158.82396 23.596888 158.21458Q24.003138 157.60521 24.753138 157.30833Q25.503138 156.99583 26.393763 156.99583Q27.346888 156.99583 28.112513 157.33958Q28.878138 157.66771 29.284388 158.32396Q29.690638 158.98021 29.690638 159.69896Q29.690638 160.23021 29.471888 160.65208Q29.237513 161.07396 28.909388 161.33958L31.940638 161.33958L31.940638 162.38646ZM26.471888 161.43333Q27.675013 161.43333 28.253138 160.94896Q28.815638 160.46458 28.815638 159.77708Q28.815638 159.07396 28.221888 158.57396Q27.628138 158.07396 26.378138 158.07396Q25.190638 158.07396 24.612513 158.55833Q24.018763 159.04271 24.018763 159.73021Q24.018763 160.40208 24.643763 160.91771Q25.268763 161.43333 26.471888 161.43333ZM31.940638 155.43333L30.956263 155.55833Q31.050013 155.21458 31.050013 154.94896Q31.050013 154.60521 30.925013 154.40208Q30.815638 154.18333 30.612513 154.04271Q30.440638 153.94896 29.815638 153.71458Q29.737513 153.69896 29.565638 153.62083L23.331263 155.99583L23.331263 154.85521L26.925013 153.55833Q27.612513 153.30833 28.378138 153.10521Q27.643763 152.91771 26.956263 152.66771L23.331263 151.33958L23.331263 150.29271L29.659388 152.65208Q30.675013 153.04271 31.065638 153.24583Q31.596888 153.52708 31.831263 153.90208Q32.08126 154.26146 32.08126 154.76146Q32.08126 155.05833 31.940638 155.43333Z" fill-rule="nonzero"/><path fill="#000000" d="M65.05 300.21564Q65.05 298.6844 65.3625 297.7625Q65.675 296.825 66.28438 296.325Q66.90938 295.825 67.84688 295.825Q68.53438 295.825 69.05 296.10626Q69.58125 296.3875 69.925 296.91876Q70.26875 297.4344 70.45625 298.1844Q70.64375 298.9344 70.64375 300.21564Q70.64375 301.73126 70.33125 302.65314Q70.03438 303.575 69.40938 304.09064Q68.8 304.59064 67.84688 304.59064Q66.6125 304.59064 65.89375 303.7Q65.05 302.6375 65.05 300.21564ZM66.12813 300.21564Q66.12813 302.325 66.62813 303.02814Q67.12813 303.73126 67.84688 303.73126Q68.58125 303.73126 69.06563 303.02814Q69.56563 302.325 69.56563 300.21564Q69.56563 298.09064 69.06563 297.40314Q68.58125 296.7 67.83125 296.7Q67.1125 296.7 66.675 297.3094Q66.12813 298.09064 66.12813 300.21564Z" fill-rule="nonzero"/><path fill="#000000" d="M69.01875 256.74335L67.97188 256.74335L67.97188 250.0246Q67.58125 250.38397 66.95625 250.75897Q66.34688 251.11835 65.8625 251.29022L65.8625 250.2746Q66.7375 249.85272 67.39375 249.2746Q68.06563 248.68085 68.34688 248.11835L69.01875 248.11835L69.01875 256.74335Z" fill-rule="nonzero"/><path fill="#000000" d="M70.59688 208.02104L70.59688 209.03667L64.90938 209.03667Q64.90938 208.66167 65.03438 208.30229Q65.25313 207.72417 65.72188 207.16167Q66.20625 206.59917 67.1125 205.86479Q68.51875 204.70854 69.00313 204.03667Q69.50313 203.36479 69.50313 202.77104Q69.50313 202.14604 69.05 201.72417Q68.59688 201.28667 67.87813 201.28667Q67.1125 201.28667 66.65938 201.73979Q66.20625 202.19292 66.19063 203.00542L65.1125 202.89604Q65.22188 201.67729 65.94063 201.05229Q66.675 200.41167 67.90938 200.41167Q69.14375 200.41167 69.8625 201.09917Q70.58125 201.78667 70.58125 202.80229Q70.58125 203.31792 70.3625 203.81792Q70.15938 204.30229 69.65938 204.86479Q69.175 205.41167 68.05 206.36479Q67.09688 207.16167 66.81563 207.45854Q66.55 207.73979 66.37813 208.02104L70.59688 208.02104Z" fill-rule="nonzero"/><path fill="#000000" d="M65.05 159.06438L66.1125 158.92375Q66.28438 159.81438 66.72188 160.22063Q67.15938 160.61125 67.78438 160.61125Q68.53438 160.61125 69.05 160.09563Q69.56563 159.58 69.56563 158.81438Q69.56563 158.09563 69.08125 157.62688Q68.6125 157.1425 67.87813 157.1425Q67.58125 157.1425 67.12813 157.2675L67.25313 156.33Q67.3625 156.34563 67.425 156.34563Q68.09688 156.34563 68.62813 156.00188Q69.175 155.6425 69.175 154.90813Q69.175 154.33 68.78438 153.955Q68.39375 153.56438 67.76875 153.56438Q67.15938 153.56438 66.7375 153.955Q66.33125 154.34563 66.22188 155.11125L65.15938 154.92375Q65.34688 153.87688 66.03438 153.29875Q66.72188 152.705 67.7375 152.705Q68.44063 152.705 69.03438 153.0175Q69.62813 153.31438 69.94063 153.83Q70.25313 154.34563 70.25313 154.93938Q70.25313 155.48625 69.95625 155.955Q69.65938 156.40813 69.08125 156.67375Q69.83125 156.84563 70.25313 157.40813Q70.675 157.955 70.675 158.79875Q70.675 159.92375 69.84688 160.705Q69.03438 161.48625 67.78438 161.48625Q66.65938 161.48625 65.90938 160.81438Q65.15938 160.12688 65.05 159.06438Z" fill-rule="nonzero"/><path fill="#000000" d="M68.425 113.62334L68.425 111.56084L64.70625 111.56084L64.70625 110.59209L68.62813 105.02959L69.4875 105.02959L69.4875 110.59209L70.64375 110.59209L70.64375 111.56084L69.4875 111.56084L69.4875 113.62334L68.425 113.62334ZM68.425 110.59209L68.425 106.73271L65.7375 110.59209L68.425 110.59209Z" fill-rule="nonzero"/><path fill="#000000" d="M65.05 63.666664L66.15938 63.572914Q66.28438 64.385414 66.72188 64.791664Q67.175 65.197914 67.81563 65.197914Q68.56563 65.197914 69.09688 64.61979Q69.62813 64.041664 69.62813 63.104164Q69.62813 62.197914 69.1125 61.68229Q68.6125 61.15104 67.78438 61.15104Q67.28438 61.15104 66.8625 61.385414Q66.45625 61.61979 66.22188 61.979164L65.2375 61.854164L66.06563 57.447914L70.34688 57.447914L70.34688 58.447914L66.90938 58.447914L66.45625 60.760414Q67.22188 60.21354 68.06563 60.21354Q69.19063 60.21354 69.95625 60.99479Q70.7375 61.77604 70.7375 63.010414Q70.7375 64.166664 70.06563 65.02604Q69.2375 66.05729 67.81563 66.05729Q66.64375 66.05729 65.89375 65.40104Q65.15938 64.74479 65.05 63.666664Z" fill-rule="nonzero"/><path fill="#000000" d="M74.55 313.21564Q74.55 311.6844 74.8625 310.7625Q75.175 309.825 75.78438 309.325Q76.40938 308.825 77.34688 308.825Q78.03438 308.825 78.55 309.10626Q79.08125 309.3875 79.425 309.91876Q79.76875 310.4344 79.95625 311.1844Q80.14375 311.9344 80.14375 313.21564Q80.14375 314.73126 79.83125 315.65314Q79.53438 316.575 78.90938 317.09064Q78.3 317.59064 77.34688 317.59064Q76.1125 317.59064 75.39375 316.7Q74.55 315.6375 74.55 313.21564ZM75.62813 313.21564Q75.62813 315.325 76.12813 316.02814Q76.62813 316.73126 77.34688 316.73126Q78.08125 316.73126 78.56563 316.02814Q79.06563 315.325 79.06563 313.21564Q79.06563 311.09064 78.56563 310.40314Q78.08125 309.7 77.33125 309.7Q76.6125 309.7 76.175 310.3094Q75.62813 311.09064 75.62813 313.21564Z" fill-rule="nonzero"/><path fill="#000000" d="M202.57187 316.4344L202.57187 317.45L196.88437 317.45Q196.88437 317.075 197.00937 316.71564Q197.22812 316.1375 197.69687 315.575Q198.18124 315.0125 199.0875 314.27814Q200.49374 313.1219 200.97812 312.45Q201.47812 311.77814 201.47812 311.1844Q201.47812 310.5594 201.025 310.1375Q200.57187 309.7 199.85312 309.7Q199.0875 309.7 198.63437 310.15314Q198.18124 310.60626 198.16562 311.41876L197.0875 311.3094Q197.19687 310.09064 197.91562 309.46564Q198.65 308.825 199.88437 308.825Q201.11874 308.825 201.8375 309.5125Q202.55624 310.2 202.55624 311.21564Q202.55624 311.73126 202.3375 312.23126Q202.13437 312.71564 201.63437 313.27814Q201.15 313.825 200.025 314.77814Q199.07187 315.575 198.79062 315.8719Q198.525 316.15314 198.35312 316.4344L202.57187 316.4344ZM204.025 315.2L205.13437 315.10626Q205.25937 315.91876 205.69687 316.325Q206.15 316.73126 206.79062 316.73126Q207.54062 316.73126 208.07187 316.15314Q208.60312 315.575 208.60312 314.6375Q208.60312 313.73126 208.0875 313.21564Q207.5875 312.6844 206.75937 312.6844Q206.25937 312.6844 205.8375 312.91876Q205.43124 313.15314 205.19687 313.5125L204.2125 313.3875L205.04062 308.98126L209.32187 308.98126L209.32187 309.98126L205.88437 309.98126L205.43124 312.29376Q206.19687 311.7469 207.04062 311.7469Q208.16562 311.7469 208.93124 312.52814Q209.7125 313.3094 209.7125 314.54376Q209.7125 315.7 209.04062 316.5594Q208.2125 317.59064 206.79062 317.59064Q205.61874 317.59064 204.86874 316.9344Q204.13437 316.27814 204.025 315.2Z" fill-rule="nonzero"/><path fill="#000000" d="M323.0 315.2L324.10938 315.10626Q324.23438 315.91876 324.67188 316.325Q325.125 316.73126 325.76562 316.73126Q326.51562 316.73126 327.04688 316.15314Q327.57812 315.575 327.57812 314.6375Q327.57812 313.73126 327.0625 313.21564Q326.5625 312.6844 325.73438 312.6844Q325.23438 312.6844 324.8125 312.91876Q324.40625 313.15314 324.17188 313.5125L323.1875 313.3875L324.01562 308.98126L328.29688 308.98126L328.29688 309.98126L324.85938 309.98126L324.40625 312.29376Q325.17188 311.7469 326.01562 311.7469Q327.14062 311.7469 327.90625 312.52814Q328.6875 313.3094 328.6875 314.54376Q328.6875 315.7 328.01562 316.5594Q327.1875 317.59064 325.76562 317.59064Q324.59375 317.59064 323.84375 316.9344Q323.10938 316.27814 323.0 315.2ZM330.0 313.21564Q330.0 311.6844 330.3125 310.7625Q330.625 309.825 331.23438 309.325Q331.85938 308.825 332.79688 308.825Q333.48438 308.825 334.0 309.10626Q334.53125 309.3875 334.875 309.91876Q335.21875 310.4344 335.40625 311.1844Q335.59375 311.9344 335.59375 313.21564Q335.59375 314.73126 335.28125 315.65314Q334.98438 316.575 334.35938 317.09064Q333.75 317.59064 332.79688 317.59064Q331.5625 317.59064 330.84375 316.7Q330.0 315.6375 330.0 313.21564ZM331.07812 313.21564Q331.07812 315.325 331.57812 316.02814Q332.07812 316.73126 332.79688 316.73126Q333.53125 316.73126 334.01562 316.02814Q334.51562 315.325 334.51562 313.21564Q334.51562 311.09064 334.01562 310.40314Q333.53125 309.7 332.78125 309.7Q332.0625 309.7 331.625 310.3094Q331.07812 311.09064 331.07812 313.21564Z" fill-rule="nonzero"/><path fill="#000000" d="M449.0375 309.98126L449.0375 308.96564L454.6 308.96564L454.6 309.79376Q453.7875 310.66876 452.975 312.1219Q452.17813 313.5594 451.74063 315.09064Q451.4125 316.16876 451.33438 317.45L450.24063 317.45Q450.25626 316.4344 450.63126 314.9969Q451.02188 313.5594 451.725 312.23126Q452.44376 310.90314 453.25626 309.98126L449.0375 309.98126ZM455.975 315.2L457.08438 315.10626Q457.20938 315.91876 457.64688 316.325Q458.1 316.73126 458.74063 316.73126Q459.49063 316.73126 460.02188 316.15314Q460.55313 315.575 460.55313 314.6375Q460.55313 313.73126 460.0375 313.21564Q459.5375 312.6844 458.70938 312.6844Q458.20938 312.6844 457.7875 312.91876Q457.38126 313.15314 457.14688 313.5125L456.1625 313.3875L456.99063 308.98126L461.27188 308.98126L461.27188 309.98126L457.83438 309.98126L457.38126 312.29376Q458.14688 311.7469 458.99063 311.7469Q460.11563 311.7469 460.88126 312.52814Q461.6625 313.3094 461.6625 314.54376Q461.6625 315.7 460.99063 316.5594Q460.1625 317.59064 458.74063 317.59064Q457.56876 317.59064 456.81876 316.9344Q456.08438 316.27814 455.975 315.2Z" fill-rule="nonzero"/><path fill="#000000" d="M575.41876 317.45L574.3719 317.45L574.3719 310.73126Q573.98126 311.09064 573.35626 311.46564Q572.7469 311.825 572.2625 311.9969L572.2625 310.98126Q573.1375 310.5594 573.79376 309.98126Q574.46564 309.3875 574.7469 308.825L575.41876 308.825L575.41876 317.45ZM578.45 313.21564Q578.45 311.6844 578.7625 310.7625Q579.075 309.825 579.6844 309.325Q580.3094 308.825 581.2469 308.825Q581.9344 308.825 582.45 309.10626Q582.98126 309.3875 583.325 309.91876Q583.66876 310.4344 583.85626 311.1844Q584.04376 311.9344 584.04376 313.21564Q584.04376 314.73126 583.73126 315.65314Q583.4344 316.575 582.8094 317.09064Q582.2 317.59064 581.2469 317.59064Q580.0125 317.59064 579.29376 316.7Q578.45 315.6375 578.45 313.21564ZM579.52814 313.21564Q579.52814 315.325 580.02814 316.02814Q580.52814 316.73126 581.2469 316.73126Q581.98126 316.73126 582.46564 316.02814Q582.96564 315.325 582.96564 313.21564Q582.96564 311.09064 582.46564 310.40314Q581.98126 309.7 581.23126 309.7Q580.5125 309.7 580.075 310.3094Q579.52814 311.09064 579.52814 313.21564ZM585.45 313.21564Q585.45 311.6844 585.7625 310.7625Q586.075 309.825 586.6844 309.325Q587.3094 308.825 588.2469 308.825Q588.9344 308.825 589.45 309.10626Q589.98126 309.3875 590.325 309.91876Q590.66876 310.4344 590.85626 311.1844Q591.04376 311.9344 591.04376 313.21564Q591.04376 314.73126 590.73126 315.65314Q590.4344 316.575 589.8094 317.09064Q589.2 317.59064 588.2469 317.59064Q587.0125 317.59064 586.29376 316.7Q585.45 315.6375 585.45 313.21564ZM586.52814 313.21564Q586.52814 315.325 587.02814 316.02814Q587.52814 316.73126 588.2469 316.73126Q588.98126 316.73126 589.46564 316.02814Q589.96564 315.325 589.96564 313.21564Q589.96564 311.09064 589.46564 310.40314Q588.98126 309.7 588.23126 309.7Q587.5125 309.7 587.075 310.3094Q586.52814 311.09064 586.52814 313.21564Z" fill-rule="nonzero"/><path fill="#757575" d="M20.128124 37.55L20.128124 23.2375L30.4875 23.2375L30.4875 24.925L22.034374 24.925L22.034374 29.3L29.940624 29.3L29.940624 30.9875L22.034374 30.9875L22.034374 35.8625L30.815624 35.8625L30.815624 37.55L20.128124 37.55ZM32.8625 37.55L32.8625 27.175L34.45625 27.175L34.45625 28.659374Q35.596874 26.940624 37.753124 26.940624Q38.690624 26.940624 39.471874 27.284374Q40.26875 27.6125 40.659374 28.159374Q41.05 28.70625 41.20625 29.45625Q41.3 29.95625 41.3 31.175L41.3 37.55L39.534374 37.55L39.534374 31.2375Q39.534374 30.159374 39.33125 29.628124Q39.128124 29.096874 38.596874 28.784374Q38.08125 28.471874 37.378124 28.471874Q36.253124 28.471874 35.440624 29.190624Q34.628124 29.89375 34.628124 31.878124L34.628124 37.55L32.8625 37.55ZM46.70625 35.971874L46.95625 37.534374Q46.221874 37.690624 45.628124 37.690624Q44.675 37.690624 44.14375 37.39375Q43.628124 37.08125 43.409374 36.596874Q43.190624 36.096874 43.190624 34.51875L43.190624 28.55L41.909374 28.55L41.909374 27.175L43.190624 27.175L43.190624 24.6125L44.940624 23.55L44.940624 27.175L46.70625 27.175L46.70625 28.55L44.940624 28.55L44.940624 34.6125Q44.940624 35.3625 45.034374 35.58125Q45.128124 35.784374 45.33125 35.925Q45.55 36.05 45.940624 36.05Q46.221874 36.05 46.70625 35.971874ZM48.846874 37.55L48.846874 27.175L50.425 27.175L50.425 28.753124Q51.034374 27.64375 51.55 27.3Q52.065624 26.940624 52.675 26.940624Q53.565624 26.940624 54.4875 27.503124L53.878124 29.14375Q53.2375 28.753124 52.596874 28.753124Q52.01875 28.753124 51.55 29.1125Q51.096874 29.45625 50.89375 30.065624Q50.6125 31.003124 50.6125 32.1125L50.6125 37.55L48.846874 37.55ZM55.221874 32.3625Q55.221874 29.4875 56.815624 28.096874Q58.159374 26.940624 60.08125 26.940624Q62.221874 26.940624 63.565624 28.346874Q64.925 29.753124 64.925 32.221874Q64.925 34.221874 64.33125 35.378124Q63.7375 36.51875 62.58125 37.159374Q61.440624 37.784374 60.08125 37.784374Q57.89375 37.784374 56.55 36.39375Q55.221874 34.9875 55.221874 32.3625ZM57.01875 32.3625Q57.01875 34.3625 57.878124 35.346874Q58.753124 36.33125 60.08125 36.33125Q61.39375 36.33125 62.253124 35.346874Q63.128124 34.346874 63.128124 32.3Q63.128124 30.378124 62.253124 29.39375Q61.378124 28.39375 60.08125 28.39375Q58.753124 28.39375 57.878124 29.39375Q57.01875 30.378124 57.01875 32.3625ZM66.8625 41.51875L66.8625 27.175L68.47188 27.175L68.47188 28.51875Q69.03438 27.7375 69.7375 27.346874Q70.45625 26.940624 71.47188 26.940624Q72.8 26.940624 73.81563 27.628124Q74.83125 28.315624 75.34688 29.565624Q75.87813 30.8 75.87813 32.284374Q75.87813 33.878124 75.3 35.159374Q74.7375 36.425 73.64375 37.1125Q72.55 37.784374 71.34688 37.784374Q70.47188 37.784374 69.76875 37.409374Q69.08125 37.034374 68.62813 36.471874L68.62813 41.51875L66.8625 41.51875ZM68.45625 32.425Q68.45625 34.425 69.26875 35.378124Q70.08125 36.33125 71.2375 36.33125Q72.40938 36.33125 73.2375 35.346874Q74.08125 34.3625 74.08125 32.26875Q74.08125 30.3 73.25313 29.315624Q72.44063 28.315624 71.31563 28.315624Q70.19063 28.315624 69.31563 29.378124Q68.45625 30.425 68.45625 32.425ZM77.78438 41.55L77.59688 39.89375Q78.175 40.05 78.59688 40.05Q79.19063 40.05 79.53438 39.846874Q79.89375 39.659374 80.1125 39.315624Q80.28438 39.05 80.65938 38.003124Q80.70625 37.846874 80.81563 37.565624L76.87813 27.175L78.76875 27.175L80.925 33.190624Q81.34688 34.33125 81.675 35.58125Q81.9875 34.378124 82.39375 33.221874L84.6125 27.175L86.37813 27.175L82.425 37.721874Q81.8 39.440624 81.44063 40.08125Q80.97188 40.95625 80.3625 41.346874Q79.76875 41.753124 78.925 41.753124Q78.40938 41.753124 77.78438 41.55ZM93.87813 25.253124L93.87813 23.2375L95.64375 23.2375L95.64375 25.253124L93.87813 25.253124ZM93.87813 37.55L93.87813 27.175L95.64375 27.175L95.64375 37.55L93.87813 37.55ZM97.8625 37.55L97.8625 27.175L99.45625 27.175L99.45625 28.659374Q100.59688 26.940624 102.75313 26.940624Q103.69063 26.940624 104.47188 27.284374Q105.26875 27.6125 105.65938 28.159374Q106.05 28.70625 106.20625 29.45625Q106.3 29.95625 106.3 31.175L106.3 37.55L104.53438 37.55L104.53438 31.2375Q104.53438 30.159374 104.33125 29.628124Q104.12813 29.096874 103.59688 28.784374Q103.08125 28.471874 102.37813 28.471874Q101.25313 28.471874 100.44063 29.190624Q99.62813 29.89375 99.62813 31.878124L99.62813 37.55L97.8625 37.55ZM114.64375 33.753124L116.3625 33.971874Q116.08125 35.76875 114.90938 36.784374Q113.75313 37.784374 112.05 37.784374Q109.925 37.784374 108.62813 36.39375Q107.33125 35.003124 107.33125 32.409374Q107.33125 30.721874 107.87813 29.471874Q108.44063 28.20625 109.58125 27.58125Q110.72188 26.940624 112.06563 26.940624Q113.75313 26.940624 114.81563 27.8Q115.89375 28.659374 116.20625 30.221874L114.4875 30.4875Q114.25313 29.440624 113.62813 28.925Q113.00313 28.39375 112.12813 28.39375Q110.8 28.39375 109.97188 29.346874Q109.14375 30.3 109.14375 32.346874Q109.14375 34.440624 109.94063 35.39375Q110.7375 36.33125 112.03438 36.33125Q113.06563 36.33125 113.75313 35.70625Q114.45625 35.065624 114.64375 33.753124ZM117.84688 37.55L117.84688 27.175L119.425 27.175L119.425 28.753124Q120.03438 27.64375 120.55 27.3Q121.06563 26.940624 121.675 26.940624Q122.56563 26.940624 123.4875 27.503124L122.87813 29.14375Q122.2375 28.753124 121.59688 28.753124Q121.01875 28.753124 120.55 29.1125Q120.09688 29.45625 119.89375 30.065624Q119.6125 31.003124 119.6125 32.1125L119.6125 37.55L117.84688 37.55ZM131.97188 34.20625L133.78438 34.440624Q133.3625 36.01875 132.19063 36.909374Q131.03438 37.784374 129.22188 37.784374Q126.95625 37.784374 125.6125 36.39375Q124.28438 34.9875 124.28438 32.45625Q124.28438 29.83125 125.62813 28.39375Q126.97188 26.940624 129.12813 26.940624Q131.20625 26.940624 132.51875 28.3625Q133.84688 29.76875 133.84688 32.346874Q133.84688 32.503124 133.83125 32.815624L126.09688 32.815624Q126.19063 34.51875 127.06563 35.425Q127.94063 36.33125 129.2375 36.33125Q130.20625 36.33125 130.87813 35.83125Q131.56563 35.315624 131.97188 34.20625ZM126.19063 31.3625L131.9875 31.3625Q131.87813 30.065624 131.33125 29.409374Q130.4875 28.39375 129.14375 28.39375Q127.94063 28.39375 127.1125 29.20625Q126.28438 30.003124 126.19063 31.3625ZM142.64375 36.26875Q141.65938 37.096874 140.75313 37.440624Q139.84688 37.784374 138.81563 37.784374Q137.1125 37.784374 136.19063 36.95625Q135.26875 36.1125 135.26875 34.815624Q135.26875 34.05 135.6125 33.425Q135.97188 32.8 136.53438 32.425Q137.09688 32.034374 137.8 31.83125Q138.31563 31.70625 139.3625 31.565624Q141.4875 31.315624 142.4875 30.971874Q142.50313 30.6125 142.50313 30.503124Q142.50313 29.440624 142.00313 28.9875Q141.33125 28.39375 140.00313 28.39375Q138.75313 28.39375 138.15938 28.83125Q137.58125 29.26875 137.3 30.378124L135.58125 30.14375Q135.81563 29.034374 136.34688 28.3625Q136.87813 27.675 137.89375 27.315624Q138.90938 26.940624 140.25313 26.940624Q141.58125 26.940624 142.40938 27.253124Q143.2375 27.565624 143.62813 28.05Q144.01875 28.51875 144.175 29.2375Q144.26875 29.690624 144.26875 30.8625L144.26875 33.20625Q144.26875 35.659374 144.37813 36.315624Q144.4875 36.95625 144.83125 37.55L142.9875 37.55Q142.72188 37.003124 142.64375 36.26875ZM142.4875 32.346874Q141.53438 32.7375 139.6125 33.003124Q138.53438 33.159374 138.08125 33.3625Q137.64375 33.55 137.39375 33.925Q137.14375 34.3 137.14375 34.76875Q137.14375 35.471874 137.675 35.940624Q138.20625 36.409374 139.2375 36.409374Q140.25313 36.409374 141.03438 35.971874Q141.83125 35.51875 142.20625 34.753124Q142.4875 34.14375 142.4875 32.9875L142.4875 32.346874ZM146.15938 34.45625L147.90938 34.175Q148.05 35.221874 148.72188 35.784374Q149.39375 36.33125 150.59688 36.33125Q151.8 36.33125 152.37813 35.846874Q152.97188 35.346874 152.97188 34.690624Q152.97188 34.096874 152.45625 33.753124Q152.09688 33.51875 150.65938 33.159374Q148.72188 32.659374 147.97188 32.315624Q147.2375 31.95625 146.84688 31.33125Q146.45625 30.690624 146.45625 29.925Q146.45625 29.2375 146.76875 28.64375Q147.09688 28.05 147.64375 27.659374Q148.05 27.3625 148.75313 27.159374Q149.47188 26.940624 150.28438 26.940624Q151.50313 26.940624 152.425 27.3Q153.34688 27.64375 153.78438 28.253124Q154.22188 28.846874 154.39375 29.846874L152.675 30.08125Q152.55 29.284374 151.9875 28.846874Q151.425 28.39375 150.40938 28.39375Q149.19063 28.39375 148.675 28.8Q148.15938 29.190624 148.15938 29.721874Q148.15938 30.065624 148.37813 30.346874Q148.58125 30.628124 149.05 30.815624Q149.31563 30.909374 150.59688 31.253124Q152.47188 31.753124 153.20625 32.08125Q153.94063 32.39375 154.3625 33.003124Q154.78438 33.596874 154.78438 34.503124Q154.78438 35.378124 154.26875 36.159374Q153.75313 36.940624 152.78438 37.3625Q151.81563 37.784374 150.59688 37.784374Q148.58125 37.784374 147.51875 36.940624Q146.45625 36.096874 146.15938 34.45625ZM163.97188 34.20625L165.78438 34.440624Q165.3625 36.01875 164.19063 36.909374Q163.03438 37.784374 161.22188 37.784374Q158.95625 37.784374 157.6125 36.39375Q156.28438 34.9875 156.28438 32.45625Q156.28438 29.83125 157.62813 28.39375Q158.97188 26.940624 161.12813 26.940624Q163.20625 26.940624 164.51875 28.3625Q165.84688 29.76875 165.84688 32.346874Q165.84688 32.503124 165.83125 32.815624L158.09688 32.815624Q158.19063 34.51875 159.06563 35.425Q159.94063 36.33125 161.2375 36.33125Q162.20625 36.33125 162.87813 35.83125Q163.56563 35.315624 163.97188 34.20625ZM158.19063 31.3625L163.9875 31.3625Q163.87813 30.065624 163.33125 29.409374Q162.4875 28.39375 161.14375 28.39375Q159.94063 28.39375 159.1125 29.20625Q158.28438 30.003124 158.19063 31.3625ZM167.15938 34.45625L168.90938 34.175Q169.05 35.221874 169.72188 35.784374Q170.39375 36.33125 171.59688 36.33125Q172.8 36.33125 173.37813 35.846874Q173.97188 35.346874 173.97188 34.690624Q173.97188 34.096874 173.45625 33.753124Q173.09688 33.51875 171.65938 33.159374Q169.72188 32.659374 168.97188 32.315624Q168.2375 31.95625 167.84688 31.33125Q167.45625 30.690624 167.45625 29.925Q167.45625 29.2375 167.76875 28.64375Q168.09688 28.05 168.64375 27.659374Q169.05 27.3625 169.75313 27.159374Q170.47188 26.940624 171.28438 26.940624Q172.50313 26.940624 173.425 27.3Q174.34688 27.64375 174.78438 28.253124Q175.22188 28.846874 175.39375 29.846874L173.675 30.08125Q173.55 29.284374 172.9875 28.846874Q172.425 28.39375 171.40938 28.39375Q170.19063 28.39375 169.675 28.8Q169.15938 29.190624 169.15938 29.721874Q169.15938 30.065624 169.37813 30.346874Q169.58125 30.628124 170.05 30.815624Q170.31563 30.909374 171.59688 31.253124Q173.47188 31.753124 174.20625 32.08125Q174.94063 32.39375 175.3625 33.003124Q175.78438 33.596874 175.78438 34.503124Q175.78438 35.378124 175.26875 36.159374Q174.75313 36.940624 173.78438 37.3625Q172.81563 37.784374 171.59688 37.784374Q169.58125 37.784374 168.51875 36.940624Q167.45625 36.096874 167.15938 34.45625ZM185.78438 37.55L182.6125 27.175L184.425 27.175L186.08125 33.159374L186.69063 35.39375Q186.7375 35.221874 187.22188 33.253124L188.87813 27.175L190.69063 27.175L192.2375 33.190624L192.75313 35.175L193.34688 33.175L195.12813 27.175L196.83125 27.175L193.59688 37.55L191.76875 37.55L190.1125 31.33125L189.72188 29.565624L187.6125 37.55L185.78438 37.55ZM198.87813 25.253124L198.87813 23.2375L200.64375 23.2375L200.64375 25.253124L198.87813 25.253124ZM198.87813 37.55L198.87813 27.175L200.64375 27.175L200.64375 37.55L198.87813 37.55ZM206.70625 35.971874L206.95625 37.534374Q206.22188 37.690624 205.62813 37.690624Q204.675 37.690624 204.14375 37.39375Q203.62813 37.08125 203.40938 36.596874Q203.19063 36.096874 203.19063 34.51875L203.19063 28.55L201.90938 28.55L201.90938 27.175L203.19063 27.175L203.19063 24.6125L204.94063 23.55L204.94063 27.175L206.70625 27.175L206.70625 28.55L204.94063 28.55L204.94063 34.6125Q204.94063 35.3625 205.03438 35.58125Q205.12813 35.784374 205.33125 35.925Q205.55 36.05 205.94063 36.05Q206.22188 36.05 206.70625 35.971874ZM208.8625 37.55L208.8625 23.2375L210.62813 23.2375L210.62813 28.3625Q211.8625 26.940624 213.7375 26.940624Q214.87813 26.940624 215.72188 27.39375Q216.58125 27.846874 216.94063 28.659374Q217.31563 29.45625 217.31563 30.971874L217.31563 37.55L215.56563 37.55L215.56563 30.971874Q215.56563 29.659374 214.9875 29.065624Q214.40938 28.45625 213.37813 28.45625Q212.59688 28.45625 211.89375 28.8625Q211.20625 29.26875 210.90938 29.971874Q210.62813 30.659374 210.62813 31.878124L210.62813 37.55L208.8625 37.55ZM228.70625 35.971874L228.95625 37.534374Q228.22188 37.690624 227.62813 37.690624Q226.675 37.690624 226.14375 37.39375Q225.62813 37.08125 225.40938 36.596874Q225.19063 36.096874 225.19063 34.51875L225.19063 28.55L223.90938 28.55L223.90938 27.175L225.19063 27.175L225.19063 24.6125L226.94063 23.55L226.94063 27.175L228.70625 27.175L228.70625 28.55L226.94063 28.55L226.94063 34.6125Q226.94063 35.3625 227.03438 35.58125Q227.12813 35.784374 227.33125 35.925Q227.55 36.05 227.94063 36.05Q228.22188 36.05 228.70625 35.971874ZM230.87813 25.253124L230.87813 23.2375L232.64375 23.2375L232.64375 25.253124L230.87813 25.253124ZM230.87813 37.55L230.87813 27.175L232.64375 27.175L232.64375 37.55L230.87813 37.55ZM234.8625 37.55L234.8625 27.175L236.44063 27.175L236.44063 28.628124Q236.925 27.878124 237.7375 27.409374Q238.55 26.940624 239.58125 26.940624Q240.7375 26.940624 241.47188 27.425Q242.20625 27.89375 242.51875 28.753124Q243.75313 26.940624 245.72188 26.940624Q247.26875 26.940624 248.09688 27.8Q248.925 28.659374 248.925 30.425L248.925 37.55L247.175 37.55L247.175 31.01875Q247.175 29.95625 247.00313 29.503124Q246.83125 29.034374 246.37813 28.753124Q245.94063 28.471874 245.33125 28.471874Q244.2375 28.471874 243.50313 29.20625Q242.78438 29.925 242.78438 31.51875L242.78438 37.55L241.03438 37.55L241.03438 30.815624Q241.03438 29.64375 240.59688 29.065624Q240.175 28.471874 239.19063 28.471874Q238.45625 28.471874 237.81563 28.8625Q237.19063 29.253124 236.90938 30.003124Q236.62813 30.753124 236.62813 32.175L236.62813 37.55L234.8625 37.55ZM257.97186 34.20625L259.78436 34.440624Q259.3625 36.01875 258.1906 36.909374Q257.03436 37.784374 255.22188 37.784374Q252.95625 37.784374 251.6125 36.39375Q250.28438 34.9875 250.28438 32.45625Q250.28438 29.83125 251.62813 28.39375Q252.97188 26.940624 255.12813 26.940624Q257.20624 26.940624 258.51874 28.3625Q259.84686 29.76875 259.84686 32.346874Q259.84686 32.503124 259.83124 32.815624L252.09688 32.815624Q252.19063 34.51875 253.06563 35.425Q253.94063 36.33125 255.2375 36.33125Q256.20624 36.33125 256.8781 35.83125Q257.5656 35.315624 257.97186 34.20625ZM252.19063 31.3625L257.9875 31.3625Q257.8781 30.065624 257.33124 29.409374Q256.4875 28.39375 255.14375 28.39375Q253.94063 28.39375 253.1125 29.20625Q252.28438 30.003124 252.19063 31.3625ZM265.15936 34.01875Q265.14374 33.675 265.14374 33.503124Q265.14374 32.45625 265.4406 31.70625Q265.65936 31.14375 266.14374 30.565624Q266.4875 30.14375 267.39374 29.346874Q268.3156 28.534374 268.58124 28.065624Q268.8625 27.58125 268.8625 27.01875Q268.8625 25.9875 268.05 25.221874Q267.2531 24.440624 266.09686 24.440624Q264.97186 24.440624 264.22186 25.14375Q263.47186 25.846874 263.2375 27.33125L261.425 27.1125Q261.675 25.1125 262.8781 24.05Q264.08124 22.9875 266.0656 22.9875Q268.175 22.9875 269.425 24.128124Q270.675 25.26875 270.675 26.89375Q270.675 27.83125 270.22186 28.628124Q269.78436 29.409374 268.5031 30.55Q267.64374 31.315624 267.3781 31.675Q267.1281 32.034374 266.9875 32.503124Q266.8625 32.971874 266.84686 34.01875L265.15936 34.01875ZM265.05 37.55L265.05 35.55L267.05 35.55L267.05 37.55L265.05 37.55Z" fill-rule="nonzero"/></svg>